<svg width="1440" height="147" viewBox="0 0 1440 147" fill="none" xmlns="http://www.w3.org/2000/svg">
<g filter="url(#filter0_f_1_9153)">
<path fill-rule="evenodd" clip-rule="evenodd" d="M0 42.955L21.6 54.5155C43.2 66.0761 87.6 89.1972 130.8 77.6366C174 66.0761 218.4 19.8338 261.6 5.38314C306 -9.06756 349.2 8.27328 392.4 25.6141C436.8 42.955 480 60.2958 523.2 57.4057C567.6 54.5155 610.8 31.3944 654 28.5043C698.4 25.6141 741.6 42.955 786 57.4057C829.2 71.8564 872.4 83.4169 916.8 86.3071C960 89.1972 1003.2 83.4169 1047.6 89.1972C1090.8 94.9775 1134 112.318 1178.4 106.538C1221.6 100.758 1266 71.8564 1309.2 68.9662C1352.4 66.0761 1396.8 89.1972 1418.4 100.758L1440 112.318V147H1418.4C1396.8 147 1352.4 147 1309.2 147C1266 147 1221.6 147 1178.4 147C1134 147 1090.8 147 1047.6 147C1003.2 147 960 147 916.8 147C872.4 147 829.2 147 786 147C741.6 147 698.4 147 654 147C610.8 147 567.6 147 523.2 147C480 147 436.8 147 392.4 147C349.2 147 306 147 261.6 147C218.4 147 174 147 130.8 147C87.6 147 43.2 147 21.6 147H0V42.955Z" fill="#FF9900" fill-opacity="0.3"/>
<path fill-rule="evenodd" clip-rule="evenodd" d="M0 42.955L21.6 54.5155C43.2 66.0761 87.6 89.1972 130.8 77.6366C174 66.0761 218.4 19.8338 261.6 5.38314C306 -9.06756 349.2 8.27328 392.4 25.6141C436.8 42.955 480 60.2958 523.2 57.4057C567.6 54.5155 610.8 31.3944 654 28.5043C698.4 25.6141 741.6 42.955 786 57.4057C829.2 71.8564 872.4 83.4169 916.8 86.3071C960 89.1972 1003.2 83.4169 1047.6 89.1972C1090.8 94.9775 1134 112.318 1178.4 106.538C1221.6 100.758 1266 71.8564 1309.2 68.9662C1352.4 66.0761 1396.8 89.1972 1418.4 100.758L1440 112.318V147H1418.4C1396.8 147 1352.4 147 1309.2 147C1266 147 1221.6 147 1178.4 147C1134 147 1090.8 147 1047.6 147C1003.2 147 960 147 916.8 147C872.4 147 829.2 147 786 147C741.6 147 698.4 147 654 147C610.8 147 567.6 147 523.2 147C480 147 436.8 147 392.4 147C349.2 147 306 147 261.6 147C218.4 147 174 147 130.8 147C87.6 147 43.2 147 21.6 147H0V42.955Z" stroke="black"/>
</g>
<defs>
<filter id="filter0_f_1_9153" x="-50" y="-50" width="1540" height="247" filterUnits="userSpaceOnUse" color-interpolation-filters="sRGB">
<feFlood flood-opacity="0" result="BackgroundImageFix"/>
<feBlend mode="normal" in="SourceGraphic" in2="BackgroundImageFix" result="shape"/>
<feGaussianBlur stdDeviation="25" result="effect1_foregroundBlur_1_9153"/>
</filter>
</defs>
</svg>
