<svg width="286" height="286" viewBox="0 0 286 286" fill="none" xmlns="http://www.w3.org/2000/svg">
<g clip-path="url(#clip0_94_220)">
<path d="M270 0H16C7.16344 0 0 7.16344 0 16V270C0 278.837 7.16344 286 16 286H270C278.837 286 286 278.837 286 270V16C286 7.16344 278.837 0 270 0Z" fill="url(#paint0_linear_94_220)"/>
<path d="M270 0.150024H16C7.24631 0.150024 0.150024 7.24631 0.150024 16V270C0.150024 278.754 7.24631 285.85 16 285.85H270C278.754 285.85 285.85 278.754 285.85 270V16C285.85 7.24631 278.754 0.150024 270 0.150024Z" stroke="white" stroke-width="0.3"/>
<path d="M134.431 35.5H135.399V41.2187C135.399 41.7292 135.306 42.1628 135.118 42.5195C134.931 42.8763 134.666 43.1471 134.325 43.332C133.984 43.5169 133.582 43.6094 133.118 43.6094C132.681 43.6094 132.291 43.5299 131.95 43.3711C131.609 43.2096 131.341 42.9805 131.146 42.6836C130.95 42.3867 130.853 42.0339 130.853 41.625H131.806C131.806 41.8516 131.862 42.0495 131.974 42.2187C132.088 42.3854 132.244 42.5156 132.442 42.6094C132.64 42.7031 132.866 42.75 133.118 42.75C133.397 42.75 133.634 42.6914 133.829 42.5742C134.024 42.457 134.173 42.2852 134.274 42.0586C134.379 41.8294 134.431 41.5495 134.431 41.2187V35.5ZM140.997 41.0469V37.5H141.919V43.5H140.997V42.4844H140.935C140.794 42.7891 140.575 43.0482 140.278 43.2617C139.981 43.4727 139.606 43.5781 139.153 43.5781C138.778 43.5781 138.445 43.4961 138.153 43.332C137.862 43.1654 137.632 42.9154 137.466 42.582C137.299 42.2461 137.216 41.8229 137.216 41.3125V37.5H138.138V41.25C138.138 41.6875 138.26 42.0365 138.505 42.2969C138.752 42.5573 139.067 42.6875 139.45 42.6875C139.679 42.6875 139.912 42.6289 140.149 42.5117C140.389 42.3945 140.59 42.2148 140.751 41.9727C140.915 41.7305 140.997 41.4219 140.997 41.0469ZM144.529 39.8906V43.5H143.607V37.5H144.498V38.4375H144.576C144.717 38.1328 144.93 37.888 145.217 37.7031C145.503 37.5156 145.873 37.4219 146.326 37.4219C146.732 37.4219 147.088 37.5052 147.393 37.6719C147.697 37.8359 147.934 38.0859 148.104 38.4219C148.273 38.7552 148.357 39.1771 148.357 39.6875V43.5H147.436V39.75C147.436 39.2786 147.313 38.9115 147.068 38.6484C146.824 38.3828 146.488 38.25 146.061 38.25C145.766 38.25 145.503 38.3138 145.271 38.4414C145.042 38.569 144.861 38.7552 144.729 39C144.596 39.2448 144.529 39.5417 144.529 39.8906ZM152.558 43.625C151.979 43.625 151.481 43.4974 151.062 43.2422C150.645 42.9844 150.323 42.625 150.097 42.1641C149.873 41.7005 149.761 41.1615 149.761 40.5469C149.761 39.9323 149.873 39.3906 150.097 38.9219C150.323 38.4505 150.638 38.0833 151.042 37.8203C151.448 37.5547 151.922 37.4219 152.464 37.4219C152.776 37.4219 153.085 37.474 153.39 37.5781C153.694 37.6823 153.972 37.8516 154.222 38.0859C154.472 38.3177 154.671 38.625 154.819 39.0078C154.968 39.3906 155.042 39.862 155.042 40.4219V40.8125H150.417V40.0156H154.104C154.104 39.6771 154.037 39.375 153.901 39.1094C153.769 38.8437 153.578 38.6341 153.331 38.4805C153.086 38.3268 152.797 38.25 152.464 38.25C152.097 38.25 151.779 38.3411 151.511 38.5234C151.245 38.7031 151.041 38.9375 150.897 39.2266C150.754 39.5156 150.683 39.8255 150.683 40.1562V40.6875C150.683 41.1406 150.761 41.5247 150.917 41.8398C151.076 42.1523 151.296 42.3906 151.577 42.5547C151.858 42.7161 152.185 42.7969 152.558 42.7969C152.8 42.7969 153.019 42.763 153.214 42.6953C153.412 42.625 153.582 42.5208 153.726 42.3828C153.869 42.2422 153.979 42.0677 154.058 41.8594L154.948 42.1094C154.854 42.4115 154.697 42.6771 154.476 42.9062C154.254 43.1328 153.981 43.3099 153.655 43.4375C153.33 43.5625 152.964 43.625 152.558 43.625Z" fill="#F9A11E"/>
<mask id="mask0_94_220" style="mask-type:luminance" maskUnits="userSpaceOnUse" x="41" y="54" width="204" height="204">
<path d="M245 54H41V258H245V54Z" fill="white"/>
</mask>
<g mask="url(#mask0_94_220)">
<mask id="mask1_94_220" style="mask-type:luminance" maskUnits="userSpaceOnUse" x="41" y="54" width="204" height="22">
<path d="M245 54H41V76H245V54Z" fill="white"/>
</mask>
<g mask="url(#mask1_94_220)">
<path d="M44.7939 61.5H45.9502L48.6689 68.1406H48.7627L51.4814 61.5H52.6377V69.5H51.7314V63.4219H51.6533L49.1533 69.5H48.2783L45.7783 63.4219H45.7002V69.5H44.7939V61.5ZM56.8926 69.625C56.3509 69.625 55.8757 69.4961 55.4668 69.2383C55.0605 68.9805 54.7428 68.6198 54.5137 68.1562C54.2871 67.6927 54.1738 67.151 54.1738 66.5312C54.1738 65.9062 54.2871 65.3607 54.5137 64.8945C54.7428 64.4284 55.0605 64.0664 55.4668 63.8086C55.8757 63.5508 56.3509 63.4219 56.8926 63.4219C57.4342 63.4219 57.9082 63.5508 58.3145 63.8086C58.7233 64.0664 59.041 64.4284 59.2676 64.8945C59.4967 65.3607 59.6113 65.9062 59.6113 66.5312C59.6113 67.151 59.4967 67.6927 59.2676 68.1562C59.041 68.6198 58.7233 68.9805 58.3145 69.2383C57.9082 69.4961 57.4342 69.625 56.8926 69.625ZM56.8926 68.7969C57.304 68.7969 57.6426 68.6914 57.9082 68.4805C58.1738 68.2695 58.3704 67.9922 58.498 67.6484C58.6257 67.3047 58.6895 66.9323 58.6895 66.5312C58.6895 66.1302 58.6257 65.7565 58.498 65.4102C58.3704 65.0638 58.1738 64.7839 57.9082 64.5703C57.6426 64.3568 57.304 64.25 56.8926 64.25C56.4811 64.25 56.1426 64.3568 55.877 64.5703C55.6113 64.7839 55.4147 65.0638 55.2871 65.4102C55.1595 65.7565 55.0957 66.1302 55.0957 66.5312C55.0957 66.9323 55.1595 67.3047 55.2871 67.6484C55.4147 67.9922 55.6113 68.2695 55.877 68.4805C56.1426 68.6914 56.4811 68.7969 56.8926 68.7969Z" fill="white"/>
<path d="M76.5482 62.3594V61.5H82.5482V62.3594H80.0326V69.5H79.0638V62.3594H76.5482ZM86.8831 67.0469V63.5H87.805V69.5H86.8831V68.4844H86.8206C86.68 68.7891 86.4613 69.0482 86.1644 69.2617C85.8675 69.4727 85.4925 69.5781 85.0394 69.5781C84.6644 69.5781 84.3311 69.4961 84.0394 69.332C83.7477 69.1654 83.5186 68.9154 83.3519 68.582C83.1852 68.2461 83.1019 67.8229 83.1019 67.3125V63.5H84.0238V67.25C84.0238 67.6875 84.1462 68.0365 84.391 68.2969C84.6384 68.5573 84.9535 68.6875 85.3363 68.6875C85.5654 68.6875 85.7985 68.6289 86.0355 68.5117C86.2751 68.3945 86.4756 68.2148 86.6371 67.9727C86.8011 67.7305 86.8831 67.4219 86.8831 67.0469Z" fill="white"/>
<path d="M106.946 69.5L104.758 61.5H105.743L107.415 68.0156H107.493L109.196 61.5H110.29L111.993 68.0156H112.071L113.743 61.5H114.727L112.54 69.5H111.54L109.774 63.125H109.712L107.946 69.5H106.946ZM117.766 69.625C117.188 69.625 116.689 69.4974 116.27 69.2422C115.854 68.9844 115.532 68.625 115.305 68.1641C115.081 67.7005 114.969 67.1615 114.969 66.5469C114.969 65.9323 115.081 65.3906 115.305 64.9219C115.532 64.4505 115.847 64.0833 116.251 63.8203C116.657 63.5547 117.131 63.4219 117.673 63.4219C117.985 63.4219 118.294 63.474 118.598 63.5781C118.903 63.6823 119.18 63.8516 119.43 64.0859C119.68 64.3177 119.88 64.625 120.028 65.0078C120.176 65.3906 120.251 65.862 120.251 66.4219V66.8125H115.626V66.0156H119.313C119.313 65.6771 119.245 65.375 119.11 65.1094C118.977 64.8437 118.787 64.6341 118.54 64.4805C118.295 64.3268 118.006 64.25 117.673 64.25C117.305 64.25 116.988 64.3411 116.719 64.5234C116.454 64.7031 116.249 64.9375 116.106 65.2266C115.963 65.5156 115.891 65.8255 115.891 66.1562V66.6875C115.891 67.1406 115.969 67.5247 116.126 67.8398C116.284 68.1523 116.505 68.3906 116.786 68.5547C117.067 68.7161 117.394 68.7969 117.766 68.7969C118.008 68.7969 118.227 68.763 118.423 68.6953C118.62 68.625 118.791 68.5208 118.934 68.3828C119.077 68.2422 119.188 68.0677 119.266 67.8594L120.157 68.1094C120.063 68.4115 119.906 68.6771 119.684 68.9062C119.463 69.1328 119.189 69.3099 118.864 69.4375C118.538 69.5625 118.173 69.625 117.766 69.625Z" fill="white"/>
<path d="M136.753 62.3594V61.5H142.753V62.3594H140.237V69.5H139.269V62.3594H136.753ZM145.045 65.8906V69.5H144.123V61.5H145.045V64.4375H145.123C145.264 64.1276 145.475 63.8815 145.756 63.6992C146.04 63.5143 146.417 63.4219 146.889 63.4219C147.298 63.4219 147.656 63.5039 147.963 63.668C148.27 63.8294 148.508 64.0781 148.678 64.4141C148.85 64.7474 148.936 65.1719 148.936 65.6875V69.5H148.014V65.75C148.014 65.2734 147.89 64.9049 147.643 64.6445C147.398 64.3815 147.058 64.25 146.623 64.25C146.321 64.25 146.05 64.3138 145.811 64.4414C145.574 64.569 145.386 64.7552 145.248 65C145.113 65.2448 145.045 65.5417 145.045 65.8906Z" fill="white"/>
<path d="M169.06 69.5V61.5H173.857V62.3594H170.029V65.0625H173.497V65.9219H170.029V69.5H169.06ZM175.326 69.5V63.5H176.217V64.4062H176.28C176.389 64.1094 176.587 63.8685 176.873 63.6836C177.16 63.4987 177.483 63.4062 177.842 63.4062C177.91 63.4062 177.994 63.4076 178.096 63.4102C178.198 63.4128 178.274 63.4167 178.326 63.4219V64.3594C178.295 64.3516 178.224 64.3398 178.112 64.3242C178.002 64.306 177.886 64.2969 177.764 64.2969C177.472 64.2969 177.212 64.3581 176.983 64.4805C176.756 64.6003 176.576 64.7669 176.444 64.9805C176.313 65.1914 176.248 65.4323 176.248 65.7031V69.5H175.326Z" fill="white"/>
<path d="M202.404 63.5C202.357 63.1042 202.167 62.7969 201.834 62.5781C201.5 62.3594 201.091 62.25 200.607 62.25C200.253 62.25 199.943 62.3073 199.677 62.4219C199.414 62.5365 199.209 62.694 199.06 62.8945C198.914 63.0951 198.841 63.3229 198.841 63.5781C198.841 63.7917 198.892 63.9753 198.994 64.1289C199.098 64.2799 199.231 64.4062 199.392 64.5078C199.554 64.6068 199.723 64.6888 199.9 64.7539C200.077 64.8164 200.24 64.8672 200.388 64.9062L201.201 65.125C201.409 65.1797 201.641 65.2552 201.896 65.3516C202.154 65.4479 202.4 65.5794 202.634 65.7461C202.871 65.9102 203.067 66.1211 203.22 66.3789C203.374 66.6367 203.451 66.9531 203.451 67.3281C203.451 67.7604 203.338 68.151 203.111 68.5C202.887 68.849 202.559 69.1263 202.127 69.332C201.697 69.5378 201.175 69.6406 200.56 69.6406C199.987 69.6406 199.491 69.5482 199.072 69.3633C198.655 69.1784 198.327 68.9206 198.088 68.5898C197.851 68.2591 197.716 67.875 197.685 67.4375H198.685C198.711 67.7396 198.813 67.9896 198.99 68.1875C199.17 68.3828 199.396 68.5286 199.67 68.625C199.946 68.7187 200.243 68.7656 200.56 68.7656C200.93 68.7656 201.262 68.7057 201.556 68.5859C201.851 68.4635 202.084 68.2943 202.256 68.0781C202.427 67.8594 202.513 67.6042 202.513 67.3125C202.513 67.0469 202.439 66.8307 202.291 66.6641C202.142 66.4974 201.947 66.362 201.705 66.2578C201.463 66.1536 201.201 66.0625 200.92 65.9844L199.935 65.7031C199.31 65.5234 198.815 65.2669 198.451 64.9336C198.086 64.6003 197.904 64.1641 197.904 63.625C197.904 63.1771 198.025 62.7865 198.267 62.4531C198.512 62.1172 198.84 61.8568 199.252 61.6719C199.666 61.4844 200.128 61.3906 200.638 61.3906C201.154 61.3906 201.612 61.4831 202.013 61.668C202.414 61.8503 202.732 62.1003 202.966 62.418C203.203 62.7357 203.328 63.0964 203.341 63.5H202.404ZM206.684 69.6406C206.304 69.6406 205.959 69.569 205.649 69.4258C205.339 69.2799 205.093 69.0703 204.911 68.7969C204.729 68.5208 204.637 68.1875 204.637 67.7969C204.637 67.4531 204.705 67.1745 204.84 66.9609C204.976 66.7448 205.157 66.5755 205.383 66.4531C205.61 66.3307 205.86 66.2396 206.133 66.1797C206.409 66.1172 206.687 66.0677 206.965 66.0313C207.33 65.9844 207.626 65.9492 207.852 65.9258C208.081 65.8997 208.248 65.8568 208.352 65.7969C208.459 65.737 208.512 65.6328 208.512 65.4844V65.4531C208.512 65.0677 208.407 64.7682 208.196 64.5547C207.988 64.3411 207.671 64.2344 207.247 64.2344C206.807 64.2344 206.462 64.3307 206.212 64.5234C205.962 64.7161 205.786 64.9219 205.684 65.1406L204.809 64.8281C204.965 64.4635 205.174 64.1797 205.434 63.9766C205.697 63.7708 205.984 63.6276 206.294 63.5469C206.606 63.4635 206.913 63.4219 207.215 63.4219C207.408 63.4219 207.63 63.4453 207.88 63.4922C208.132 63.5365 208.376 63.6289 208.61 63.7695C208.847 63.9102 209.044 64.1224 209.2 64.4062C209.356 64.6901 209.434 65.0703 209.434 65.5469V69.5H208.512V68.6875H208.465C208.403 68.8177 208.299 68.957 208.153 69.1055C208.007 69.2539 207.813 69.3802 207.571 69.4844C207.329 69.5885 207.033 69.6406 206.684 69.6406ZM206.825 68.8125C207.189 68.8125 207.497 68.7409 207.747 68.5977C207.999 68.4544 208.189 68.2695 208.317 68.043C208.447 67.8164 208.512 67.5781 208.512 67.3281V66.4844C208.473 66.5312 208.387 66.5742 208.255 66.6133C208.124 66.6497 207.973 66.6823 207.801 66.7109C207.632 66.737 207.467 66.7604 207.305 66.7812C207.146 66.7995 207.018 66.8151 206.919 66.8281C206.679 66.8594 206.455 66.9102 206.247 66.9805C206.041 67.0482 205.874 67.151 205.747 67.2891C205.622 67.4245 205.559 67.6094 205.559 67.8437C205.559 68.1641 205.678 68.4062 205.915 68.5703C206.154 68.7318 206.458 68.8125 206.825 68.8125Z" fill="#F9A11E"/>
<path d="M232.641 63.5C232.594 63.1042 232.404 62.7969 232.07 62.5781C231.737 62.3594 231.328 62.25 230.844 62.25C230.49 62.25 230.18 62.3073 229.914 62.4219C229.651 62.5365 229.445 62.694 229.297 62.8945C229.151 63.0951 229.078 63.3229 229.078 63.5781C229.078 63.7917 229.129 63.9753 229.23 64.1289C229.335 64.2799 229.467 64.4062 229.629 64.5078C229.79 64.6068 229.96 64.6888 230.137 64.7539C230.314 64.8164 230.477 64.8672 230.625 64.9062L231.438 65.125C231.646 65.1797 231.878 65.2552 232.133 65.3516C232.391 65.4479 232.637 65.5794 232.871 65.7461C233.108 65.9102 233.303 66.1211 233.457 66.3789C233.611 66.6367 233.688 66.9531 233.688 67.3281C233.688 67.7604 233.574 68.151 233.348 68.5C233.124 68.849 232.796 69.1263 232.363 69.332C231.934 69.5378 231.411 69.6406 230.797 69.6406C230.224 69.6406 229.728 69.5482 229.309 69.3633C228.892 69.1784 228.564 68.9206 228.324 68.5898C228.087 68.2591 227.953 67.875 227.922 67.4375H228.922C228.948 67.7396 229.049 67.9896 229.227 68.1875C229.406 68.3828 229.633 68.5286 229.906 68.625C230.182 68.7187 230.479 68.7656 230.797 68.7656C231.167 68.7656 231.499 68.7057 231.793 68.5859C232.087 68.4635 232.32 68.2943 232.492 68.0781C232.664 67.8594 232.75 67.6042 232.75 67.3125C232.75 67.0469 232.676 66.8307 232.527 66.6641C232.379 66.4974 232.184 66.362 231.941 66.2578C231.699 66.1536 231.438 66.0625 231.156 65.9844L230.172 65.7031C229.547 65.5234 229.052 65.2669 228.687 64.9336C228.323 64.6003 228.141 64.1641 228.141 63.625C228.141 63.1771 228.262 62.7865 228.504 62.4531C228.749 62.1172 229.077 61.8568 229.488 61.6719C229.902 61.4844 230.365 61.3906 230.875 61.3906C231.391 61.3906 231.849 61.4831 232.25 61.668C232.651 61.8503 232.969 62.1003 233.203 62.418C233.44 62.7357 233.565 63.0964 233.578 63.5H232.641ZM238.937 67.0469V63.5H239.858V69.5H238.937V68.4844H238.874C238.733 68.7891 238.515 69.0482 238.218 69.2617C237.921 69.4727 237.546 69.5781 237.093 69.5781C236.718 69.5781 236.384 69.4961 236.093 69.332C235.801 69.1654 235.572 68.9154 235.405 68.582C235.239 68.2461 235.155 67.8229 235.155 67.3125V63.5H236.077V67.25C236.077 67.6875 236.2 68.0365 236.444 68.2969C236.692 68.5573 237.007 68.6875 237.39 68.6875C237.619 68.6875 237.852 68.6289 238.089 68.5117C238.328 68.3945 238.529 68.2148 238.69 67.9727C238.854 67.7305 238.937 67.4219 238.937 67.0469Z" fill="#F9A11E"/>
</g>
<mask id="mask2_94_220" style="mask-type:luminance" maskUnits="userSpaceOnUse" x="41" y="90" width="204" height="23">
<path d="M245 90.4H41V112.4H245V90.4Z" fill="white"/>
</mask>
<g mask="url(#mask2_94_220)">
<path d="M46.356 105.9V105.197L48.9966 102.306C49.3065 101.968 49.5617 101.673 49.7622 101.423C49.9627 101.171 50.1112 100.934 50.2075 100.713C50.3065 100.489 50.356 100.254 50.356 100.009C50.356 99.7281 50.2882 99.4847 50.1528 99.2789C50.02 99.0732 49.8377 98.9143 49.606 98.8024C49.3742 98.6904 49.1138 98.6344 48.8247 98.6344C48.5174 98.6344 48.2492 98.6982 48.02 98.8258C47.7935 98.9508 47.6177 99.1266 47.4927 99.3531C47.3703 99.5797 47.3091 99.8453 47.3091 100.15H46.3872C46.3872 99.6813 46.4953 99.2698 46.7114 98.9156C46.9276 98.5615 47.2218 98.2854 47.5942 98.0875C47.9692 97.8896 48.3898 97.7906 48.856 97.7906C49.3247 97.7906 49.7401 97.8896 50.1021 98.0875C50.464 98.2854 50.7479 98.5524 50.9536 98.8883C51.1593 99.2242 51.2622 99.5979 51.2622 100.009C51.2622 100.304 51.2088 100.591 51.1021 100.873C50.9979 101.151 50.8156 101.463 50.5552 101.806C50.2974 102.147 49.9393 102.564 49.481 103.056L47.6841 104.978V105.041H51.4028V105.9H46.356ZM53.2661 105.9L56.8442 98.8219V98.7594H52.7192V97.9H57.8442V98.8063L54.2817 105.9H53.2661Z" fill="white"/>
<path d="M76.4421 105.9V105.197L79.0828 102.306C79.3927 101.968 79.6479 101.673 79.8484 101.423C80.0489 101.171 80.1973 100.934 80.2937 100.713C80.3927 100.489 80.4421 100.254 80.4421 100.009C80.4421 99.7281 80.3744 99.4847 80.239 99.2789C80.1062 99.0732 79.9239 98.9143 79.6921 98.8024C79.4604 98.6904 79.1999 98.6344 78.9109 98.6344C78.6036 98.6344 78.3354 98.6982 78.1062 98.8258C77.8796 98.9508 77.7038 99.1266 77.5788 99.3531C77.4565 99.5797 77.3953 99.8453 77.3953 100.15H76.4734C76.4734 99.6813 76.5815 99.2698 76.7976 98.9156C77.0137 98.5615 77.308 98.2854 77.6804 98.0875C78.0554 97.8896 78.476 97.7906 78.9421 97.7906C79.4109 97.7906 79.8262 97.8896 80.1882 98.0875C80.5502 98.2854 80.8341 98.5524 81.0398 98.8883C81.2455 99.2242 81.3484 99.5979 81.3484 100.009C81.3484 100.304 81.295 100.591 81.1882 100.873C81.0841 101.151 80.9018 101.463 80.6413 101.806C80.3835 102.147 80.0255 102.564 79.5671 103.056L77.7703 104.978V105.041H81.489V105.9H76.4421ZM85.6648 106.009C85.1283 106.009 84.6544 105.914 84.2429 105.724C83.8341 105.532 83.515 105.267 83.2859 104.931C83.0567 104.593 82.9434 104.207 82.946 103.775C82.9434 103.436 83.0098 103.124 83.1453 102.838C83.2807 102.548 83.4656 102.308 83.6999 102.115C83.9369 101.92 84.2012 101.796 84.4929 101.744V101.697C84.1101 101.598 83.8054 101.383 83.5788 101.052C83.3523 100.719 83.2403 100.34 83.2429 99.9156C83.2403 99.5094 83.3432 99.1461 83.5515 98.8258C83.7598 98.5055 84.0463 98.2529 84.4109 98.068C84.7781 97.8831 85.196 97.7906 85.6648 97.7906C86.1283 97.7906 86.5424 97.8831 86.907 98.068C87.2716 98.2529 87.558 98.5055 87.7663 98.8258C87.9773 99.1461 88.0841 99.5094 88.0867 99.9156C88.0841 100.34 87.9682 100.719 87.739 101.052C87.5124 101.383 87.2117 101.598 86.8367 101.697V101.744C87.1257 101.796 87.3861 101.92 87.6179 102.115C87.8497 102.308 88.0346 102.548 88.1726 102.838C88.3106 103.124 88.3809 103.436 88.3835 103.775C88.3809 104.207 88.2637 104.593 88.032 104.931C87.8028 105.267 87.4838 105.532 87.0749 105.724C86.6687 105.914 86.1986 106.009 85.6648 106.009ZM85.6648 105.15C86.0268 105.15 86.3393 105.091 86.6023 104.974C86.8653 104.857 87.0684 104.692 87.2117 104.478C87.3549 104.265 87.4278 104.015 87.4304 103.728C87.4278 103.426 87.3497 103.159 87.196 102.927C87.0424 102.696 86.8328 102.513 86.5671 102.38C86.3041 102.248 86.0033 102.181 85.6648 102.181C85.3236 102.181 85.019 102.248 84.7507 102.38C84.4851 102.513 84.2755 102.696 84.1218 102.927C83.9708 103.159 83.8966 103.426 83.8992 103.728C83.8966 104.015 83.9656 104.265 84.1062 104.478C84.2494 104.692 84.4538 104.857 84.7195 104.974C84.9851 105.091 85.3002 105.15 85.6648 105.15ZM85.6648 101.353C85.9512 101.353 86.2052 101.296 86.4265 101.181C86.6505 101.067 86.8262 100.907 86.9538 100.701C87.0815 100.495 87.1466 100.254 87.1492 99.9781C87.1466 99.7073 87.0828 99.4716 86.9578 99.2711C86.8328 99.068 86.6596 98.9117 86.4382 98.8024C86.2169 98.6904 85.9591 98.6344 85.6648 98.6344C85.3653 98.6344 85.1036 98.6904 84.8796 98.8024C84.6557 98.9117 84.4825 99.068 84.3601 99.2711C84.2377 99.4716 84.1778 99.7073 84.1804 99.9781C84.1778 100.254 84.239 100.495 84.364 100.701C84.4916 100.907 84.6674 101.067 84.8913 101.181C85.1153 101.296 85.3731 101.353 85.6648 101.353Z" fill="white"/>
<path d="M106.733 105.9V105.197L109.373 102.306C109.683 101.968 109.938 101.673 110.139 101.423C110.339 101.171 110.488 100.934 110.584 100.713C110.683 100.489 110.733 100.254 110.733 100.009C110.733 99.7281 110.665 99.4847 110.529 99.2789C110.397 99.0732 110.214 98.9143 109.983 98.8024C109.751 98.6904 109.49 98.6344 109.201 98.6344C108.894 98.6344 108.626 98.6982 108.397 98.8258C108.17 98.9508 107.994 99.1266 107.869 99.3531C107.747 99.5797 107.686 99.8453 107.686 100.15H106.764C106.764 99.6813 106.872 99.2698 107.088 98.9156C107.304 98.5615 107.598 98.2854 107.971 98.0875C108.346 97.8896 108.766 97.7906 109.233 97.7906C109.701 97.7906 110.117 97.8896 110.479 98.0875C110.841 98.2854 111.125 98.5524 111.33 98.8883C111.536 99.2242 111.639 99.5979 111.639 100.009C111.639 100.304 111.585 100.591 111.479 100.873C111.375 101.151 111.192 101.463 110.932 101.806C110.674 102.147 110.316 102.564 109.858 103.056L108.061 104.978V105.041H111.779V105.9H106.733ZM115.94 97.7906C116.268 97.7933 116.596 97.8558 116.924 97.9781C117.252 98.1005 117.552 98.3037 117.822 98.5875C118.093 98.8688 118.311 99.2529 118.475 99.7399C118.639 100.227 118.721 100.838 118.721 101.572C118.721 102.283 118.653 102.914 118.518 103.466C118.385 104.016 118.192 104.479 117.94 104.857C117.69 105.235 117.385 105.521 117.026 105.716C116.669 105.912 116.265 106.009 115.815 106.009C115.367 106.009 114.967 105.921 114.615 105.744C114.266 105.564 113.98 105.315 113.756 104.998C113.535 104.677 113.393 104.306 113.33 103.884H114.283C114.369 104.252 114.54 104.555 114.795 104.795C115.053 105.032 115.393 105.15 115.815 105.15C116.432 105.15 116.919 104.88 117.276 104.341C117.635 103.802 117.815 103.041 117.815 102.056H117.752C117.606 102.275 117.433 102.464 117.233 102.623C117.032 102.782 116.809 102.904 116.565 102.99C116.32 103.076 116.059 103.119 115.783 103.119C115.325 103.119 114.904 103.005 114.522 102.779C114.141 102.55 113.837 102.236 113.608 101.838C113.381 101.436 113.268 100.978 113.268 100.463C113.268 99.9729 113.377 99.525 113.596 99.1188C113.817 98.7099 114.127 98.3844 114.526 98.1422C114.927 97.9 115.398 97.7828 115.94 97.7906ZM115.94 98.65C115.611 98.65 115.316 98.7321 115.053 98.8961C114.792 99.0576 114.585 99.2763 114.432 99.5524C114.281 99.8258 114.205 100.129 114.205 100.463C114.205 100.796 114.278 101.099 114.424 101.373C114.572 101.644 114.774 101.86 115.029 102.021C115.287 102.18 115.58 102.259 115.908 102.259C116.156 102.259 116.386 102.211 116.6 102.115C116.813 102.016 117 101.882 117.158 101.713C117.32 101.541 117.446 101.347 117.537 101.13C117.628 100.912 117.674 100.684 117.674 100.447C117.674 100.134 117.598 99.8414 117.447 99.568C117.299 99.2946 117.093 99.0732 116.83 98.9039C116.57 98.7347 116.273 98.65 115.94 98.65Z" fill="white"/>
<path d="M139.592 106.009C139.076 106.009 138.617 105.921 138.213 105.744C137.812 105.567 137.493 105.321 137.256 105.005C137.021 104.688 136.894 104.319 136.873 103.9H137.857C137.878 104.158 137.967 104.38 138.123 104.568C138.279 104.753 138.484 104.896 138.736 104.998C138.989 105.099 139.269 105.15 139.576 105.15C139.92 105.15 140.225 105.09 140.49 104.97C140.756 104.851 140.964 104.684 141.115 104.47C141.266 104.257 141.342 104.009 141.342 103.728C141.342 103.434 141.269 103.175 141.123 102.951C140.977 102.724 140.764 102.547 140.482 102.42C140.201 102.292 139.857 102.228 139.451 102.228H138.811V101.369H139.451C139.769 101.369 140.048 101.311 140.287 101.197C140.529 101.082 140.718 100.921 140.854 100.713C140.992 100.504 141.061 100.259 141.061 99.9781C141.061 99.7073 141.001 99.4716 140.881 99.2711C140.761 99.0706 140.592 98.9143 140.373 98.8024C140.157 98.6904 139.902 98.6344 139.607 98.6344C139.331 98.6344 139.071 98.6852 138.826 98.7867C138.584 98.8857 138.386 99.0302 138.232 99.2203C138.079 99.4078 137.995 99.6344 137.982 99.9H137.045C137.061 99.4808 137.187 99.1136 137.424 98.7985C137.661 98.4808 137.971 98.2334 138.354 98.0563C138.739 97.8792 139.162 97.7906 139.623 97.7906C140.118 97.7906 140.542 97.8909 140.896 98.0914C141.251 98.2893 141.523 98.5511 141.713 98.8766C141.903 99.2021 141.998 99.5537 141.998 99.9313C141.998 100.382 141.88 100.766 141.643 101.084C141.408 101.401 141.089 101.621 140.686 101.744V101.806C141.191 101.89 141.585 102.104 141.869 102.451C142.153 102.795 142.295 103.22 142.295 103.728C142.295 104.163 142.176 104.554 141.939 104.9C141.705 105.244 141.385 105.515 140.979 105.713C140.572 105.91 140.11 106.009 139.592 106.009ZM146.502 106.009C145.913 106.009 145.412 105.849 144.998 105.529C144.584 105.206 144.268 104.739 144.049 104.127C143.83 103.512 143.721 102.77 143.721 101.9C143.721 101.035 143.83 100.297 144.049 99.6852C144.27 99.0706 144.588 98.6018 145.002 98.2789C145.419 97.9534 145.919 97.7906 146.502 97.7906C147.085 97.7906 147.584 97.9534 147.998 98.2789C148.415 98.6018 148.732 99.0706 148.951 99.6852C149.173 100.297 149.283 101.035 149.283 101.9C149.283 102.77 149.174 103.512 148.955 104.127C148.736 104.739 148.42 105.206 148.006 105.529C147.592 105.849 147.09 106.009 146.502 106.009ZM146.502 105.15C147.085 105.15 147.538 104.869 147.861 104.306C148.184 103.744 148.346 102.942 148.346 101.9C148.346 101.207 148.271 100.617 148.123 100.13C147.977 99.6435 147.766 99.2724 147.49 99.0172C147.217 98.762 146.887 98.6344 146.502 98.6344C145.924 98.6344 145.472 98.9196 145.146 99.4899C144.821 100.058 144.658 100.861 144.658 101.9C144.658 102.593 144.731 103.181 144.877 103.666C145.023 104.15 145.232 104.519 145.506 104.771C145.782 105.024 146.114 105.15 146.502 105.15Z" fill="white"/>
<path d="M170.806 106.009C170.29 106.009 169.831 105.921 169.427 105.744C169.026 105.567 168.707 105.321 168.47 105.005C168.236 104.688 168.108 104.319 168.087 103.9H169.072C169.092 104.158 169.181 104.38 169.337 104.568C169.493 104.753 169.698 104.896 169.951 104.998C170.203 105.099 170.483 105.15 170.79 105.15C171.134 105.15 171.439 105.09 171.704 104.97C171.97 104.851 172.178 104.684 172.329 104.47C172.48 104.257 172.556 104.009 172.556 103.728C172.556 103.434 172.483 103.175 172.337 102.951C172.191 102.724 171.978 102.547 171.697 102.42C171.415 102.292 171.072 102.228 170.665 102.228H170.025V101.369H170.665C170.983 101.369 171.262 101.311 171.501 101.197C171.743 101.082 171.932 100.921 172.068 100.713C172.206 100.504 172.275 100.259 172.275 99.9781C172.275 99.7073 172.215 99.4716 172.095 99.2711C171.975 99.0706 171.806 98.9143 171.587 98.8024C171.371 98.6904 171.116 98.6344 170.822 98.6344C170.546 98.6344 170.285 98.6852 170.04 98.7867C169.798 98.8857 169.6 99.0302 169.447 99.2203C169.293 99.4078 169.21 99.6344 169.197 99.9H168.259C168.275 99.4808 168.401 99.1136 168.638 98.7985C168.875 98.4808 169.185 98.2334 169.568 98.0563C169.953 97.8792 170.376 97.7906 170.837 97.7906C171.332 97.7906 171.757 97.8909 172.111 98.0914C172.465 98.2893 172.737 98.5511 172.927 98.8766C173.117 99.2021 173.212 99.5537 173.212 99.9313C173.212 100.382 173.094 100.766 172.857 101.084C172.622 101.401 172.303 101.621 171.9 101.744V101.806C172.405 101.89 172.799 102.104 173.083 102.451C173.367 102.795 173.509 103.22 173.509 103.728C173.509 104.163 173.391 104.554 173.154 104.9C172.919 105.244 172.599 105.515 172.193 105.713C171.786 105.91 171.324 106.009 170.806 106.009ZM177.919 97.9V105.9H176.951V98.9156H176.904L174.951 100.213V99.2281L176.951 97.9H177.919Z" fill="white"/>
<path d="M204.751 97.9V105.9H203.782V98.9156H203.735L201.782 100.213V99.2281L203.782 97.9H204.751Z" fill="#F9A11E"/>
<path d="M231.498 105.9V105.197L234.139 102.306C234.449 101.968 234.704 101.673 234.904 101.423C235.105 101.171 235.253 100.934 235.35 100.713C235.449 100.489 235.498 100.254 235.498 100.009C235.498 99.7281 235.43 99.4847 235.295 99.2789C235.162 99.0732 234.98 98.9143 234.748 98.8024C234.516 98.6904 234.256 98.6344 233.967 98.6344C233.66 98.6344 233.391 98.6982 233.162 98.8258C232.936 98.9508 232.76 99.1266 232.635 99.3531C232.512 99.5797 232.451 99.8453 232.451 100.15H231.529C231.529 99.6813 231.637 99.2698 231.854 98.9156C232.07 98.5615 232.364 98.2854 232.736 98.0875C233.111 97.8896 233.532 97.7906 233.998 97.7906C234.467 97.7906 234.882 97.8896 235.244 98.0875C235.606 98.2854 235.89 98.5524 236.096 98.8883C236.301 99.2242 236.404 99.5979 236.404 100.009C236.404 100.304 236.351 100.591 236.244 100.873C236.14 101.151 235.958 101.463 235.697 101.806C235.439 102.147 235.081 102.564 234.623 103.056L232.826 104.978V105.041H236.545V105.9H231.498Z" fill="#F9A11E"/>
</g>
<mask id="mask3_94_220" style="mask-type:luminance" maskUnits="userSpaceOnUse" x="41" y="126" width="204" height="23">
<path d="M245 126.8H41V148.8H245V126.8Z" fill="white"/>
</mask>
<g mask="url(#mask3_94_220)">
<path d="M52.0293 142.409C51.5137 142.409 51.054 142.321 50.6504 142.144C50.2493 141.967 49.9303 141.721 49.6934 141.405C49.459 141.088 49.3314 140.719 49.3105 140.3H50.2949C50.3158 140.558 50.4043 140.78 50.5605 140.968C50.7168 141.153 50.9212 141.296 51.1738 141.398C51.4264 141.499 51.7064 141.55 52.0137 141.55C52.3574 141.55 52.6621 141.49 52.9277 141.37C53.1934 141.251 53.4017 141.084 53.5527 140.87C53.7038 140.657 53.7793 140.409 53.7793 140.128C53.7793 139.834 53.7064 139.575 53.5605 139.351C53.4147 139.124 53.2012 138.947 52.9199 138.82C52.6387 138.692 52.2949 138.628 51.8887 138.628H51.248V137.769H51.8887C52.2064 137.769 52.485 137.711 52.7246 137.597C52.9668 137.482 53.1556 137.321 53.291 137.112C53.429 136.904 53.498 136.659 53.498 136.378C53.498 136.107 53.4382 135.872 53.3184 135.671C53.1986 135.471 53.0293 135.314 52.8105 135.202C52.5944 135.09 52.3392 135.034 52.0449 135.034C51.7689 135.034 51.5085 135.085 51.2637 135.187C51.0215 135.286 50.8236 135.43 50.6699 135.62C50.5163 135.808 50.4329 136.034 50.4199 136.3H49.4824C49.498 135.881 49.6243 135.514 49.8613 135.198C50.0983 134.881 50.4082 134.633 50.791 134.456C51.1764 134.279 51.5996 134.191 52.0605 134.191C52.5553 134.191 52.9798 134.291 53.334 134.491C53.6882 134.689 53.9603 134.951 54.1504 135.277C54.3405 135.602 54.4355 135.954 54.4355 136.331C54.4355 136.782 54.3171 137.166 54.0801 137.484C53.8457 137.801 53.5267 138.021 53.123 138.144V138.206C53.6283 138.29 54.0228 138.504 54.3066 138.851C54.5905 139.195 54.7324 139.62 54.7324 140.128C54.7324 140.563 54.6139 140.954 54.377 141.3C54.1426 141.644 53.8223 141.915 53.416 142.112C53.0098 142.31 52.5475 142.409 52.0293 142.409Z" fill="white"/>
<path d="M79.4452 140.659V139.862L82.9608 134.3H83.5389V135.534H83.1483L80.492 139.737V139.8H85.2264V140.659H79.4452ZM83.2108 142.3V140.417V140.046V134.3H84.1327V142.3H83.2108Z" fill="white"/>
<path d="M112.649 142.409C112.19 142.409 111.777 142.318 111.41 142.136C111.043 141.954 110.749 141.704 110.527 141.386C110.306 141.068 110.185 140.706 110.164 140.3H111.102C111.138 140.662 111.302 140.961 111.594 141.198C111.888 141.433 112.24 141.55 112.649 141.55C112.977 141.55 113.268 141.473 113.524 141.32C113.781 141.166 113.983 140.955 114.129 140.687C114.277 140.416 114.352 140.11 114.352 139.769C114.352 139.42 114.275 139.109 114.121 138.835C113.97 138.559 113.762 138.342 113.496 138.183C113.231 138.024 112.927 137.943 112.586 137.941C112.341 137.938 112.09 137.976 111.832 138.054C111.574 138.129 111.362 138.227 111.195 138.347L110.289 138.237L110.774 134.3H114.93V135.159H111.586L111.305 137.519H111.352C111.516 137.389 111.722 137.28 111.969 137.195C112.216 137.109 112.474 137.066 112.742 137.066C113.232 137.066 113.668 137.183 114.051 137.417C114.436 137.649 114.738 137.967 114.957 138.37C115.179 138.774 115.289 139.235 115.289 139.753C115.289 140.264 115.175 140.719 114.945 141.12C114.719 141.519 114.406 141.834 114.008 142.066C113.61 142.295 113.156 142.409 112.649 142.409Z" fill="white"/>
<path d="M143.052 142.409C142.724 142.404 142.396 142.342 142.068 142.222C141.74 142.102 141.44 141.9 141.169 141.616C140.899 141.33 140.681 140.943 140.517 140.456C140.353 139.967 140.271 139.352 140.271 138.612C140.271 137.904 140.337 137.277 140.47 136.73C140.603 136.18 140.796 135.718 141.048 135.343C141.301 134.965 141.606 134.679 141.962 134.484C142.322 134.288 142.727 134.191 143.177 134.191C143.625 134.191 144.024 134.28 144.373 134.46C144.724 134.637 145.011 134.885 145.232 135.202C145.453 135.52 145.597 135.886 145.662 136.3H144.708C144.62 135.941 144.448 135.642 144.193 135.405C143.938 135.168 143.599 135.05 143.177 135.05C142.557 135.05 142.069 135.32 141.712 135.859C141.358 136.398 141.18 137.154 141.177 138.128H141.24C141.386 137.907 141.559 137.718 141.759 137.562C141.962 137.403 142.186 137.28 142.431 137.195C142.676 137.109 142.935 137.066 143.208 137.066C143.667 137.066 144.086 137.18 144.466 137.409C144.847 137.636 145.151 137.95 145.38 138.351C145.61 138.749 145.724 139.206 145.724 139.722C145.724 140.217 145.613 140.67 145.392 141.081C145.171 141.49 144.86 141.816 144.458 142.058C144.06 142.297 143.591 142.415 143.052 142.409ZM143.052 141.55C143.38 141.55 143.675 141.468 143.935 141.304C144.198 141.14 144.405 140.92 144.556 140.644C144.71 140.368 144.787 140.06 144.787 139.722C144.787 139.391 144.712 139.09 144.564 138.82C144.418 138.546 144.216 138.329 143.958 138.167C143.703 138.006 143.412 137.925 143.083 137.925C142.836 137.925 142.606 137.974 142.392 138.073C142.179 138.17 141.991 138.303 141.83 138.472C141.671 138.641 141.546 138.835 141.455 139.054C141.363 139.27 141.318 139.498 141.318 139.737C141.318 140.055 141.392 140.352 141.541 140.628C141.692 140.904 141.897 141.127 142.158 141.296C142.421 141.465 142.719 141.55 143.052 141.55Z" fill="white"/>
<path d="M171.269 142.3L174.847 135.222V135.159H170.722V134.3H175.847V135.206L172.285 142.3H171.269Z" fill="white"/>
<path d="M203.668 142.409C203.132 142.409 202.658 142.314 202.246 142.124C201.837 141.931 201.518 141.667 201.289 141.331C201.06 140.993 200.947 140.607 200.949 140.175C200.947 139.836 201.013 139.524 201.149 139.237C201.284 138.948 201.469 138.708 201.703 138.515C201.94 138.32 202.205 138.196 202.496 138.144V138.097C202.113 137.998 201.809 137.783 201.582 137.452C201.356 137.119 201.244 136.74 201.246 136.316C201.244 135.909 201.347 135.546 201.555 135.226C201.763 134.905 202.05 134.653 202.414 134.468C202.781 134.283 203.199 134.191 203.668 134.191C204.132 134.191 204.546 134.283 204.91 134.468C205.275 134.653 205.561 134.905 205.77 135.226C205.981 135.546 206.087 135.909 206.09 136.316C206.087 136.74 205.972 137.119 205.742 137.452C205.516 137.783 205.215 137.998 204.84 138.097V138.144C205.129 138.196 205.389 138.32 205.621 138.515C205.853 138.708 206.038 138.948 206.176 139.237C206.314 139.524 206.384 139.836 206.387 140.175C206.384 140.607 206.267 140.993 206.035 141.331C205.806 141.667 205.487 141.931 205.078 142.124C204.672 142.314 204.202 142.409 203.668 142.409ZM203.668 141.55C204.03 141.55 204.343 141.491 204.606 141.374C204.869 141.257 205.072 141.092 205.215 140.878C205.358 140.665 205.431 140.415 205.434 140.128C205.431 139.826 205.353 139.559 205.199 139.327C205.046 139.096 204.836 138.913 204.57 138.78C204.307 138.648 204.007 138.581 203.668 138.581C203.327 138.581 203.022 138.648 202.754 138.78C202.488 138.913 202.279 139.096 202.125 139.327C201.974 139.559 201.9 139.826 201.902 140.128C201.9 140.415 201.969 140.665 202.11 140.878C202.253 141.092 202.457 141.257 202.723 141.374C202.988 141.491 203.304 141.55 203.668 141.55ZM203.668 137.753C203.955 137.753 204.208 137.696 204.43 137.581C204.654 137.467 204.83 137.306 204.957 137.101C205.085 136.895 205.15 136.654 205.152 136.378C205.15 136.107 205.086 135.872 204.961 135.671C204.836 135.468 204.663 135.312 204.442 135.202C204.22 135.09 203.962 135.034 203.668 135.034C203.369 135.034 203.107 135.09 202.883 135.202C202.659 135.312 202.486 135.468 202.363 135.671C202.241 135.872 202.181 136.107 202.184 136.378C202.181 136.654 202.242 136.895 202.367 137.101C202.495 137.306 202.671 137.467 202.895 137.581C203.119 137.696 203.376 137.753 203.668 137.753Z" fill="#F9A11E"/>
<path d="M233.943 134.191C234.271 134.193 234.599 134.256 234.927 134.378C235.255 134.501 235.555 134.704 235.826 134.987C236.097 135.269 236.314 135.653 236.478 136.14C236.642 136.627 236.724 137.237 236.724 137.972C236.724 138.683 236.656 139.314 236.521 139.866C236.388 140.416 236.195 140.879 235.943 141.257C235.693 141.635 235.388 141.921 235.029 142.116C234.672 142.312 234.268 142.409 233.818 142.409C233.37 142.409 232.97 142.321 232.619 142.144C232.27 141.964 231.983 141.715 231.759 141.398C231.538 141.077 231.396 140.706 231.333 140.284H232.287C232.373 140.652 232.543 140.955 232.798 141.195C233.056 141.431 233.396 141.55 233.818 141.55C234.435 141.55 234.922 141.28 235.279 140.741C235.638 140.202 235.818 139.441 235.818 138.456H235.755C235.61 138.675 235.436 138.864 235.236 139.023C235.035 139.181 234.813 139.304 234.568 139.39C234.323 139.476 234.063 139.519 233.787 139.519C233.328 139.519 232.908 139.405 232.525 139.179C232.145 138.95 231.84 138.636 231.611 138.237C231.384 137.836 231.271 137.378 231.271 136.862C231.271 136.373 231.38 135.925 231.599 135.519C231.82 135.11 232.13 134.784 232.529 134.542C232.93 134.3 233.401 134.183 233.943 134.191ZM233.943 135.05C233.615 135.05 233.319 135.132 233.056 135.296C232.796 135.458 232.589 135.676 232.435 135.952C232.284 136.226 232.208 136.529 232.208 136.862C232.208 137.196 232.281 137.499 232.427 137.773C232.576 138.043 232.778 138.26 233.033 138.421C233.291 138.58 233.583 138.659 233.912 138.659C234.159 138.659 234.389 138.611 234.603 138.515C234.817 138.416 235.003 138.282 235.162 138.112C235.323 137.941 235.449 137.747 235.541 137.53C235.632 137.312 235.677 137.084 235.677 136.847C235.677 136.534 235.602 136.241 235.451 135.968C235.302 135.695 235.097 135.473 234.833 135.304C234.573 135.135 234.276 135.05 233.943 135.05Z" fill="#F9A11E"/>
</g>
<mask id="mask4_94_220" style="mask-type:luminance" maskUnits="userSpaceOnUse" x="41" y="163" width="204" height="23">
<path d="M245 163.2H41V185.2H245V163.2Z" fill="white"/>
</mask>
<g mask="url(#mask4_94_220)">
<path d="M49.6465 170.7V178.7H48.6777V171.716H48.6309L46.6777 173.013V172.028L48.6777 170.7H49.6465ZM54.5566 178.809C53.9681 178.809 53.4668 178.649 53.0527 178.329C52.6387 178.006 52.3223 177.539 52.1035 176.927C51.8848 176.312 51.7754 175.57 51.7754 174.7C51.7754 173.835 51.8848 173.097 52.1035 172.485C52.3249 171.871 52.6426 171.402 53.0566 171.079C53.4733 170.753 53.9733 170.591 54.5566 170.591C55.14 170.591 55.6387 170.753 56.0527 171.079C56.4694 171.402 56.7871 171.871 57.0059 172.485C57.2272 173.097 57.3379 173.835 57.3379 174.7C57.3379 175.57 57.2285 176.312 57.0098 176.927C56.791 177.539 56.4746 178.006 56.0605 178.329C55.6465 178.649 55.1452 178.809 54.5566 178.809ZM54.5566 177.95C55.14 177.95 55.5931 177.669 55.916 177.106C56.2389 176.544 56.4004 175.742 56.4004 174.7C56.4004 174.007 56.3262 173.417 56.1777 172.93C56.0319 172.444 55.821 172.072 55.5449 171.817C55.2715 171.562 54.9421 171.434 54.5566 171.434C53.9785 171.434 53.5267 171.72 53.2012 172.29C52.8757 172.858 52.7129 173.661 52.7129 174.7C52.7129 175.393 52.7858 175.981 52.9316 176.466C53.0775 176.95 53.2871 177.319 53.5605 177.571C53.8366 177.824 54.1686 177.95 54.5566 177.95Z" fill="white"/>
<path d="M80.8608 170.7V178.7H79.892V171.716H79.8452L77.892 173.013V172.028L79.892 170.7H80.8608ZM85.9741 170.7V178.7H85.0053V171.716H84.9584L83.0053 173.013V172.028L85.0053 170.7H85.9741Z" fill="white"/>
<path d="M110.421 170.7V178.7H109.452V171.716H109.405L107.452 173.013V172.028L109.452 170.7H110.421ZM112.721 178.7V177.997L115.362 175.106C115.672 174.768 115.927 174.473 116.128 174.223C116.328 173.971 116.477 173.734 116.573 173.513C116.672 173.289 116.721 173.054 116.721 172.809C116.721 172.528 116.654 172.285 116.518 172.079C116.385 171.873 116.203 171.714 115.971 171.602C115.74 171.49 115.479 171.434 115.19 171.434C114.883 171.434 114.615 171.498 114.385 171.626C114.159 171.751 113.983 171.927 113.858 172.153C113.736 172.38 113.674 172.645 113.674 172.95H112.753C112.753 172.481 112.861 172.07 113.077 171.716C113.293 171.361 113.587 171.085 113.96 170.888C114.335 170.69 114.755 170.591 115.221 170.591C115.69 170.591 116.105 170.69 116.467 170.888C116.829 171.085 117.113 171.352 117.319 171.688C117.525 172.024 117.628 172.398 117.628 172.809C117.628 173.104 117.574 173.391 117.467 173.673C117.363 173.951 117.181 174.263 116.921 174.606C116.663 174.947 116.305 175.364 115.846 175.856L114.049 177.778V177.841H117.768V178.7H112.721Z" fill="white"/>
<path d="M140.582 170.7V178.7H139.613V171.716H139.566L137.613 173.013V172.028L139.613 170.7H140.582ZM145.586 178.809C145.07 178.809 144.611 178.721 144.207 178.544C143.806 178.367 143.487 178.121 143.25 177.805C143.016 177.488 142.888 177.119 142.867 176.7H143.852C143.872 176.958 143.961 177.18 144.117 177.368C144.273 177.553 144.478 177.696 144.73 177.798C144.983 177.899 145.263 177.95 145.57 177.95C145.914 177.95 146.219 177.89 146.484 177.77C146.75 177.651 146.958 177.484 147.109 177.27C147.26 177.057 147.336 176.809 147.336 176.528C147.336 176.234 147.263 175.975 147.117 175.751C146.971 175.524 146.758 175.347 146.477 175.22C146.195 175.092 145.852 175.028 145.445 175.028H144.805V174.169H145.445C145.763 174.169 146.042 174.111 146.281 173.997C146.523 173.882 146.712 173.721 146.848 173.513C146.986 173.304 147.055 173.059 147.055 172.778C147.055 172.507 146.995 172.272 146.875 172.071C146.755 171.871 146.586 171.714 146.367 171.602C146.151 171.49 145.896 171.434 145.602 171.434C145.326 171.434 145.065 171.485 144.82 171.587C144.578 171.686 144.38 171.83 144.227 172.02C144.073 172.208 143.99 172.434 143.977 172.7H143.039C143.055 172.281 143.181 171.914 143.418 171.598C143.655 171.281 143.965 171.033 144.348 170.856C144.733 170.679 145.156 170.591 145.617 170.591C146.112 170.591 146.536 170.691 146.891 170.891C147.245 171.089 147.517 171.351 147.707 171.677C147.897 172.002 147.992 172.354 147.992 172.731C147.992 173.182 147.874 173.566 147.637 173.884C147.402 174.201 147.083 174.421 146.68 174.544V174.606C147.185 174.69 147.579 174.904 147.863 175.251C148.147 175.595 148.289 176.02 148.289 176.528C148.289 176.963 148.171 177.354 147.934 177.7C147.699 178.044 147.379 178.315 146.973 178.513C146.566 178.71 146.104 178.809 145.586 178.809Z" fill="white"/>
<path d="M170.889 170.7V178.7H169.92V171.716H169.873L167.92 173.013V172.028L169.92 170.7H170.889ZM173.002 177.059V176.263L176.517 170.7H177.096V171.934H176.705L174.049 176.138V176.2H178.783V177.059H173.002ZM176.767 178.7V176.817V176.446V170.7H177.689V178.7H176.767Z" fill="white"/>
<path d="M201.404 170.7V178.7H200.436V171.716H200.389L198.436 173.013V172.028L200.436 170.7H201.404ZM206.205 178.809C205.747 178.809 205.334 178.718 204.967 178.536C204.6 178.354 204.305 178.104 204.084 177.786C203.863 177.468 203.742 177.106 203.721 176.7H204.658C204.695 177.062 204.859 177.361 205.151 177.598C205.445 177.833 205.796 177.95 206.205 177.95C206.533 177.95 206.825 177.873 207.08 177.72C207.338 177.566 207.54 177.355 207.686 177.087C207.834 176.816 207.908 176.51 207.908 176.169C207.908 175.82 207.832 175.509 207.678 175.235C207.527 174.959 207.319 174.742 207.053 174.583C206.787 174.424 206.484 174.343 206.143 174.341C205.898 174.338 205.647 174.376 205.389 174.454C205.131 174.529 204.919 174.627 204.752 174.747L203.846 174.638L204.33 170.7H208.486V171.559H205.143L204.861 173.919H204.908C205.072 173.789 205.278 173.68 205.526 173.595C205.773 173.509 206.031 173.466 206.299 173.466C206.789 173.466 207.225 173.583 207.608 173.817C207.993 174.049 208.295 174.367 208.514 174.77C208.735 175.174 208.846 175.635 208.846 176.153C208.846 176.664 208.731 177.119 208.502 177.52C208.276 177.919 207.963 178.234 207.565 178.466C207.166 178.695 206.713 178.809 206.205 178.809Z" fill="#F9A11E"/>
<path d="M231.652 170.7V178.7H230.683V171.716H230.636L228.683 173.013V172.028L230.683 170.7H231.652ZM236.609 178.809C236.281 178.804 235.953 178.742 235.625 178.622C235.296 178.502 234.997 178.3 234.726 178.016C234.455 177.73 234.238 177.343 234.074 176.856C233.91 176.367 233.828 175.752 233.828 175.013C233.828 174.304 233.894 173.677 234.027 173.13C234.16 172.58 234.352 172.118 234.605 171.743C234.858 171.365 235.162 171.079 235.519 170.884C235.878 170.688 236.283 170.591 236.734 170.591C237.182 170.591 237.58 170.68 237.929 170.86C238.281 171.037 238.567 171.285 238.789 171.602C239.01 171.92 239.153 172.286 239.218 172.7H238.265C238.177 172.341 238.005 172.042 237.75 171.805C237.494 171.569 237.156 171.45 236.734 171.45C236.114 171.45 235.626 171.72 235.269 172.259C234.915 172.798 234.736 173.554 234.734 174.528H234.796C234.942 174.307 235.115 174.118 235.316 173.962C235.519 173.803 235.743 173.68 235.988 173.595C236.233 173.509 236.492 173.466 236.765 173.466C237.223 173.466 237.643 173.58 238.023 173.809C238.403 174.036 238.708 174.35 238.937 174.751C239.166 175.149 239.281 175.606 239.281 176.122C239.281 176.617 239.17 177.07 238.949 177.481C238.727 177.89 238.416 178.216 238.015 178.458C237.617 178.697 237.148 178.815 236.609 178.809ZM236.609 177.95C236.937 177.95 237.231 177.868 237.492 177.704C237.755 177.54 237.962 177.32 238.113 177.044C238.266 176.768 238.343 176.46 238.343 176.122C238.343 175.791 238.269 175.49 238.121 175.22C237.975 174.946 237.773 174.729 237.515 174.567C237.26 174.406 236.968 174.325 236.64 174.325C236.393 174.325 236.162 174.374 235.949 174.473C235.735 174.57 235.548 174.703 235.386 174.872C235.227 175.041 235.102 175.235 235.011 175.454C234.92 175.67 234.875 175.898 234.875 176.138C234.875 176.455 234.949 176.752 235.097 177.028C235.248 177.304 235.454 177.527 235.714 177.696C235.977 177.865 236.276 177.95 236.609 177.95Z" fill="#F9A11E"/>
</g>
<mask id="mask5_94_220" style="mask-type:luminance" maskUnits="userSpaceOnUse" x="41" y="199" width="204" height="23">
<path d="M245 199.6H41V221.6H245V199.6Z" fill="white"/>
</mask>
<g mask="url(#mask5_94_220)">
<path d="M49.9419 207.1V215.1H48.9731V208.116H48.9263L46.9731 209.412V208.428L48.9731 207.1H49.9419ZM52.4927 215.1L56.0708 208.022V207.959H51.9458V207.1H57.0708V208.006L53.5083 215.1H52.4927Z" fill="white"/>
<path d="M80.0282 207.1V215.1H79.0594V208.116H79.0125L77.0594 209.412V208.428L79.0594 207.1H80.0282ZM84.8914 215.209C84.355 215.209 83.881 215.114 83.4696 214.924C83.0607 214.731 82.7417 214.467 82.5125 214.131C82.2834 213.793 82.1701 213.407 82.1727 212.975C82.1701 212.636 82.2365 212.324 82.3719 212.037C82.5073 211.748 82.6922 211.508 82.9266 211.315C83.1636 211.12 83.4279 210.996 83.7196 210.944V210.897C83.3368 210.798 83.0321 210.583 82.8055 210.252C82.5789 209.919 82.467 209.54 82.4696 209.116C82.467 208.709 82.5698 208.346 82.7782 208.026C82.9865 207.705 83.273 207.453 83.6375 207.268C84.0047 207.083 84.4227 206.991 84.8914 206.991C85.355 206.991 85.7691 207.083 86.1336 207.268C86.4982 207.453 86.7847 207.705 86.993 208.026C87.2039 208.346 87.3107 208.709 87.3133 209.116C87.3107 209.54 87.1948 209.919 86.9657 210.252C86.7391 210.583 86.4383 210.798 86.0633 210.897V210.944C86.3524 210.996 86.6128 211.12 86.8446 211.315C87.0763 211.508 87.2612 211.748 87.3993 212.037C87.5373 212.324 87.6076 212.636 87.6102 212.975C87.6076 213.407 87.4904 213.793 87.2586 214.131C87.0295 214.467 86.7105 214.731 86.3016 214.924C85.8954 215.114 85.4253 215.209 84.8914 215.209ZM84.8914 214.35C85.2534 214.35 85.5659 214.291 85.8289 214.174C86.092 214.057 86.2951 213.892 86.4383 213.678C86.5816 213.465 86.6545 213.215 86.6571 212.928C86.6545 212.626 86.5763 212.359 86.4227 212.127C86.2691 211.896 86.0594 211.713 85.7938 211.58C85.5308 211.448 85.23 211.381 84.8914 211.381C84.5503 211.381 84.2456 211.448 83.9774 211.58C83.7118 211.713 83.5021 211.896 83.3485 212.127C83.1974 212.359 83.1232 212.626 83.1258 212.928C83.1232 213.215 83.1922 213.465 83.3329 213.678C83.4761 213.892 83.6805 214.057 83.9461 214.174C84.2118 214.291 84.5269 214.35 84.8914 214.35ZM84.8914 210.553C85.1779 210.553 85.4318 210.496 85.6532 210.381C85.8771 210.267 86.0529 210.106 86.1805 209.901C86.3081 209.695 86.3732 209.454 86.3758 209.178C86.3732 208.907 86.3094 208.672 86.1844 208.471C86.0594 208.268 85.8862 208.112 85.6649 208.002C85.4435 207.89 85.1857 207.834 84.8914 207.834C84.592 207.834 84.3303 207.89 84.1063 208.002C83.8823 208.112 83.7092 208.268 83.5868 208.471C83.4644 208.672 83.4045 208.907 83.4071 209.178C83.4045 209.454 83.4657 209.695 83.5907 209.901C83.7183 210.106 83.8941 210.267 84.118 210.381C84.342 210.496 84.5998 210.553 84.8914 210.553Z" fill="white"/>
<path d="M110.319 207.1V215.1H109.35V208.116H109.303L107.35 209.412V208.428L109.35 207.1H110.319ZM115.166 206.991C115.494 206.993 115.822 207.056 116.151 207.178C116.479 207.3 116.778 207.504 117.049 207.787C117.32 208.069 117.537 208.453 117.701 208.94C117.865 209.427 117.947 210.037 117.947 210.772C117.947 211.483 117.88 212.114 117.744 212.666C117.611 213.216 117.419 213.679 117.166 214.057C116.916 214.435 116.611 214.721 116.252 214.916C115.895 215.112 115.492 215.209 115.041 215.209C114.593 215.209 114.194 215.121 113.842 214.944C113.493 214.764 113.207 214.515 112.983 214.198C112.761 213.877 112.619 213.506 112.557 213.084H113.51C113.596 213.452 113.766 213.755 114.022 213.995C114.279 214.231 114.619 214.35 115.041 214.35C115.658 214.35 116.145 214.08 116.502 213.541C116.861 213.002 117.041 212.241 117.041 211.256H116.979C116.833 211.475 116.66 211.664 116.459 211.823C116.259 211.981 116.036 212.104 115.791 212.19C115.546 212.276 115.286 212.319 115.01 212.319C114.552 212.319 114.131 212.205 113.748 211.979C113.368 211.75 113.063 211.436 112.834 211.037C112.608 210.636 112.494 210.178 112.494 209.662C112.494 209.173 112.604 208.725 112.822 208.319C113.044 207.91 113.354 207.584 113.752 207.342C114.153 207.1 114.625 206.983 115.166 206.991ZM115.166 207.85C114.838 207.85 114.542 207.932 114.279 208.096C114.019 208.258 113.812 208.476 113.658 208.752C113.507 209.026 113.432 209.329 113.432 209.662C113.432 209.996 113.505 210.299 113.651 210.573C113.799 210.843 114.001 211.06 114.256 211.221C114.514 211.38 114.807 211.459 115.135 211.459C115.382 211.459 115.613 211.411 115.826 211.315C116.04 211.216 116.226 211.082 116.385 210.912C116.546 210.741 116.673 210.547 116.764 210.33C116.855 210.112 116.901 209.884 116.901 209.647C116.901 209.334 116.825 209.041 116.674 208.768C116.526 208.495 116.32 208.273 116.057 208.104C115.796 207.935 115.5 207.85 115.166 207.85Z" fill="white"/>
<path d="M137.061 215.1V214.397L139.701 211.506C140.011 211.168 140.266 210.873 140.467 210.623C140.667 210.371 140.816 210.134 140.912 209.912C141.011 209.689 141.061 209.454 141.061 209.209C141.061 208.928 140.993 208.685 140.857 208.479C140.725 208.273 140.542 208.114 140.311 208.002C140.079 207.89 139.818 207.834 139.529 207.834C139.222 207.834 138.954 207.898 138.725 208.026C138.498 208.151 138.322 208.327 138.197 208.553C138.075 208.78 138.014 209.045 138.014 209.35H137.092C137.092 208.881 137.2 208.47 137.416 208.116C137.632 207.761 137.926 207.485 138.299 207.287C138.674 207.09 139.094 206.991 139.561 206.991C140.029 206.991 140.445 207.09 140.807 207.287C141.169 207.485 141.452 207.752 141.658 208.088C141.864 208.424 141.967 208.798 141.967 209.209C141.967 209.504 141.913 209.791 141.807 210.073C141.702 210.351 141.52 210.662 141.26 211.006C141.002 211.347 140.644 211.764 140.186 212.256L138.389 214.178V214.241H142.107V215.1H137.061ZM146.33 215.209C145.742 215.209 145.24 215.049 144.826 214.729C144.412 214.406 144.096 213.939 143.877 213.327C143.658 212.712 143.549 211.97 143.549 211.1C143.549 210.235 143.658 209.497 143.877 208.885C144.098 208.271 144.416 207.802 144.83 207.479C145.247 207.153 145.747 206.991 146.33 206.991C146.913 206.991 147.412 207.153 147.826 207.479C148.243 207.802 148.561 208.271 148.779 208.885C149.001 209.497 149.111 210.235 149.111 211.1C149.111 211.97 149.002 212.712 148.783 213.327C148.564 213.939 148.248 214.406 147.834 214.729C147.42 215.049 146.919 215.209 146.33 215.209ZM146.33 214.35C146.913 214.35 147.367 214.069 147.689 213.506C148.012 212.944 148.174 212.142 148.174 211.1C148.174 210.407 148.1 209.817 147.951 209.33C147.805 208.843 147.594 208.472 147.318 208.217C147.045 207.962 146.715 207.834 146.33 207.834C145.752 207.834 145.3 208.12 144.975 208.69C144.649 209.258 144.486 210.061 144.486 211.1C144.486 211.793 144.559 212.381 144.705 212.866C144.851 213.35 145.061 213.718 145.334 213.971C145.61 214.224 145.942 214.35 146.33 214.35Z" fill="white"/>
<path d="M168.275 215.1V214.397L170.915 211.506C171.225 211.168 171.48 210.873 171.681 210.623C171.882 210.371 172.03 210.134 172.126 209.912C172.225 209.689 172.275 209.454 172.275 209.209C172.275 208.928 172.207 208.685 172.072 208.479C171.939 208.273 171.757 208.114 171.525 208.002C171.293 207.89 171.033 207.834 170.743 207.834C170.436 207.834 170.168 207.898 169.939 208.026C169.712 208.151 169.536 208.327 169.411 208.553C169.289 208.78 169.228 209.045 169.228 209.35H168.306C168.306 208.881 168.414 208.47 168.63 208.116C168.846 207.761 169.141 207.485 169.513 207.287C169.888 207.09 170.309 206.991 170.775 206.991C171.243 206.991 171.659 207.09 172.021 207.287C172.383 207.485 172.667 207.752 172.872 208.088C173.078 208.424 173.181 208.798 173.181 209.209C173.181 209.504 173.128 209.791 173.021 210.073C172.917 210.351 172.734 210.662 172.474 211.006C172.216 211.347 171.858 211.764 171.4 212.256L169.603 214.178V214.241H173.322V215.1H168.275ZM177.747 207.1V215.1H176.779V208.116H176.732L174.779 209.412V208.428L176.779 207.1H177.747Z" fill="white"/>
<path d="M197.835 215.1V214.397L200.475 211.506C200.785 211.168 201.04 210.873 201.241 210.623C201.441 210.371 201.59 210.134 201.686 209.912C201.785 209.689 201.835 209.454 201.835 209.209C201.835 208.928 201.767 208.685 201.632 208.479C201.499 208.273 201.316 208.114 201.085 208.002C200.853 207.89 200.592 207.834 200.303 207.834C199.996 207.834 199.728 207.898 199.499 208.026C199.272 208.151 199.096 208.327 198.971 208.553C198.849 208.78 198.788 209.045 198.788 209.35H197.866C197.866 208.881 197.974 208.47 198.19 208.116C198.406 207.761 198.701 207.485 199.073 207.287C199.448 207.09 199.868 206.991 200.335 206.991C200.803 206.991 201.219 207.09 201.581 207.287C201.943 207.485 202.227 207.752 202.432 208.088C202.638 208.424 202.741 208.798 202.741 209.209C202.741 209.504 202.687 209.791 202.581 210.073C202.477 210.351 202.294 210.662 202.034 211.006C201.776 211.347 201.418 211.764 200.96 212.256L199.163 214.178V214.241H202.882V215.1H197.835ZM204.495 215.1V214.397L207.135 211.506C207.445 211.168 207.701 210.873 207.901 210.623C208.102 210.371 208.25 210.134 208.346 209.912C208.445 209.689 208.495 209.454 208.495 209.209C208.495 208.928 208.427 208.685 208.292 208.479C208.159 208.273 207.977 208.114 207.745 208.002C207.513 207.89 207.253 207.834 206.964 207.834C206.656 207.834 206.388 207.898 206.159 208.026C205.932 208.151 205.757 208.327 205.632 208.553C205.509 208.78 205.448 209.045 205.448 209.35H204.526C204.526 208.881 204.634 208.47 204.85 208.116C205.066 207.761 205.361 207.485 205.733 207.287C206.108 207.09 206.529 206.991 206.995 206.991C207.464 206.991 207.879 207.09 208.241 207.287C208.603 207.485 208.887 207.752 209.092 208.088C209.298 208.424 209.401 208.798 209.401 209.209C209.401 209.504 209.348 209.791 209.241 210.073C209.137 210.351 208.954 210.662 208.694 211.006C208.436 211.347 208.078 211.764 207.62 212.256L205.823 214.178V214.241H209.542V215.1H204.495Z" fill="#F9A11E"/>
<path d="M227.996 215.1V214.397L230.637 211.506C230.947 211.168 231.202 210.873 231.402 210.623C231.603 210.371 231.751 210.134 231.848 209.912C231.947 209.689 231.996 209.454 231.996 209.209C231.996 208.928 231.928 208.685 231.793 208.479C231.66 208.273 231.478 208.114 231.246 208.002C231.014 207.89 230.754 207.834 230.465 207.834C230.158 207.834 229.889 207.898 229.66 208.026C229.434 208.151 229.258 208.327 229.133 208.553C229.01 208.78 228.949 209.045 228.949 209.35H228.027C228.027 208.881 228.135 208.47 228.352 208.116C228.568 207.761 228.862 207.485 229.234 207.287C229.609 207.09 230.03 206.991 230.496 206.991C230.965 206.991 231.38 207.09 231.742 207.287C232.104 207.485 232.388 207.752 232.594 208.088C232.799 208.424 232.902 208.798 232.902 209.209C232.902 209.504 232.849 209.791 232.742 210.073C232.638 210.351 232.456 210.662 232.195 211.006C231.938 211.347 231.579 211.764 231.121 212.256L229.324 214.178V214.241H233.043V215.1H227.996ZM237.359 215.209C236.844 215.209 236.384 215.121 235.98 214.944C235.579 214.767 235.26 214.521 235.023 214.205C234.789 213.888 234.661 213.519 234.641 213.1H235.625C235.646 213.358 235.734 213.58 235.891 213.768C236.047 213.953 236.251 214.096 236.504 214.198C236.757 214.299 237.036 214.35 237.344 214.35C237.688 214.35 237.992 214.29 238.258 214.17C238.523 214.05 238.732 213.884 238.883 213.67C239.034 213.457 239.109 213.209 239.109 212.928C239.109 212.634 239.036 212.375 238.891 212.151C238.745 211.924 238.531 211.747 238.25 211.62C237.969 211.492 237.625 211.428 237.219 211.428H236.578V210.569H237.219C237.536 210.569 237.815 210.511 238.055 210.397C238.297 210.282 238.486 210.121 238.621 209.912C238.759 209.704 238.828 209.459 238.828 209.178C238.828 208.907 238.768 208.672 238.648 208.471C238.529 208.271 238.359 208.114 238.141 208.002C237.924 207.89 237.669 207.834 237.375 207.834C237.099 207.834 236.839 207.885 236.594 207.987C236.352 208.086 236.154 208.23 236 208.42C235.846 208.608 235.763 208.834 235.75 209.1H234.813C234.828 208.681 234.954 208.314 235.191 207.998C235.428 207.681 235.738 207.433 236.121 207.256C236.507 207.079 236.93 206.991 237.391 206.991C237.885 206.991 238.31 207.091 238.664 207.291C239.018 207.489 239.29 207.751 239.48 208.077C239.671 208.402 239.766 208.754 239.766 209.131C239.766 209.582 239.647 209.966 239.41 210.284C239.176 210.601 238.857 210.821 238.453 210.944V211.006C238.958 211.09 239.353 211.304 239.637 211.651C239.921 211.995 240.063 212.42 240.063 212.928C240.063 213.363 239.944 213.754 239.707 214.1C239.473 214.444 239.152 214.715 238.746 214.912C238.34 215.11 237.878 215.209 237.359 215.209Z" fill="#F9A11E"/>
</g>
<mask id="mask6_94_220" style="mask-type:luminance" maskUnits="userSpaceOnUse" x="41" y="236" width="204" height="22">
<path d="M245 236H41V258H245V236Z" fill="white"/>
</mask>
<g mask="url(#mask6_94_220)">
<path d="M46.0552 251.5V250.797L48.6958 247.906C49.0057 247.568 49.2609 247.273 49.4614 247.023C49.6619 246.771 49.8104 246.534 49.9067 246.312C50.0057 246.089 50.0552 245.854 50.0552 245.609C50.0552 245.328 49.9875 245.085 49.8521 244.879C49.7192 244.673 49.5369 244.514 49.3052 244.402C49.0734 244.29 48.813 244.234 48.5239 244.234C48.2166 244.234 47.9484 244.298 47.7192 244.426C47.4927 244.551 47.3169 244.727 47.1919 244.953C47.0695 245.18 47.0083 245.445 47.0083 245.75H46.0864C46.0864 245.281 46.1945 244.87 46.4106 244.516C46.6268 244.161 46.9211 243.885 47.2935 243.687C47.6685 243.49 48.089 243.391 48.5552 243.391C49.0239 243.391 49.4393 243.49 49.8013 243.687C50.1632 243.885 50.4471 244.152 50.6528 244.488C50.8586 244.824 50.9614 245.198 50.9614 245.609C50.9614 245.904 50.908 246.191 50.8013 246.473C50.6971 246.751 50.5148 247.062 50.2544 247.406C49.9966 247.747 49.6385 248.164 49.1802 248.656L47.3833 250.578V250.641H51.1021V251.5H46.0552ZM52.356 249.859V249.062L55.8716 243.5H56.4497V244.734H56.0591L53.4028 248.937V249H58.1372V249.859H52.356ZM56.1216 251.5V249.617V249.246V243.5H57.0435V251.5H56.1216Z" fill="white"/>
<path d="M76.4852 251.5V250.797L79.1258 247.906C79.4357 247.568 79.6909 247.273 79.8914 247.023C80.092 246.771 80.2404 246.534 80.3368 246.312C80.4357 246.089 80.4852 245.854 80.4852 245.609C80.4852 245.328 80.4175 245.085 80.2821 244.879C80.1493 244.673 79.967 244.514 79.7352 244.402C79.5034 244.29 79.243 244.234 78.9539 244.234C78.6467 244.234 78.3784 244.298 78.1493 244.426C77.9227 244.551 77.7469 244.727 77.6219 244.953C77.4995 245.18 77.4383 245.445 77.4383 245.75H76.5164C76.5164 245.281 76.6245 244.87 76.8407 244.516C77.0568 244.161 77.3511 243.885 77.7235 243.687C78.0985 243.49 78.5191 243.391 78.9852 243.391C79.4539 243.391 79.8693 243.49 80.2313 243.687C80.5933 243.885 80.8771 244.152 81.0829 244.488C81.2886 244.824 81.3914 245.198 81.3914 245.609C81.3914 245.904 81.3381 246.191 81.2313 246.473C81.1271 246.751 80.9448 247.062 80.6844 247.406C80.4266 247.747 80.0685 248.164 79.6102 248.656L77.8133 250.578V250.641H81.5321V251.5H76.4852ZM85.6454 251.609C85.187 251.609 84.7743 251.518 84.4071 251.336C84.0399 251.154 83.7456 250.904 83.5243 250.586C83.3029 250.268 83.1818 249.906 83.161 249.5H84.0985C84.1349 249.862 84.299 250.161 84.5907 250.398C84.8849 250.633 85.2365 250.75 85.6454 250.75C85.9735 250.75 86.2651 250.673 86.5204 250.52C86.7782 250.366 86.98 250.155 87.1258 249.887C87.2743 249.616 87.3485 249.31 87.3485 248.969C87.3485 248.62 87.2717 248.309 87.118 248.035C86.967 247.759 86.7586 247.542 86.493 247.383C86.2274 247.224 85.924 247.143 85.5829 247.141C85.3381 247.138 85.0868 247.176 84.8289 247.254C84.5711 247.329 84.3589 247.427 84.1922 247.547L83.286 247.437L83.7704 243.5H87.9266V244.359H84.5829L84.3016 246.719H84.3485C84.5125 246.589 84.7183 246.48 84.9657 246.395C85.2131 246.309 85.4709 246.266 85.7391 246.266C86.2287 246.266 86.6649 246.383 87.0477 246.617C87.4331 246.849 87.7352 247.167 87.9539 247.57C88.1753 247.974 88.286 248.435 88.286 248.953C88.286 249.464 88.1714 249.919 87.9422 250.32C87.7157 250.719 87.4032 251.034 87.0047 251.266C86.6063 251.495 86.1532 251.609 85.6454 251.609Z" fill="white"/>
<path d="M106.733 251.5V250.797L109.373 247.906C109.683 247.568 109.938 247.273 110.139 247.023C110.339 246.771 110.488 246.534 110.584 246.312C110.683 246.089 110.733 245.854 110.733 245.609C110.733 245.328 110.665 245.085 110.529 244.879C110.397 244.673 110.214 244.514 109.983 244.402C109.751 244.29 109.49 244.234 109.201 244.234C108.894 244.234 108.626 244.298 108.397 244.426C108.17 244.551 107.994 244.727 107.869 244.953C107.747 245.18 107.686 245.445 107.686 245.75H106.764C106.764 245.281 106.872 244.87 107.088 244.516C107.304 244.161 107.598 243.885 107.971 243.687C108.346 243.49 108.766 243.391 109.233 243.391C109.701 243.391 110.117 243.49 110.479 243.687C110.841 243.885 111.125 244.152 111.33 244.488C111.536 244.824 111.639 245.198 111.639 245.609C111.639 245.904 111.585 246.191 111.479 246.473C111.375 246.751 111.192 247.062 110.932 247.406C110.674 247.747 110.316 248.164 109.858 248.656L108.061 250.578V250.641H111.779V251.5H106.733ZM116.049 251.609C115.721 251.604 115.393 251.542 115.065 251.422C114.736 251.302 114.437 251.1 114.166 250.816C113.895 250.53 113.678 250.143 113.514 249.656C113.35 249.167 113.268 248.552 113.268 247.812C113.268 247.104 113.334 246.477 113.467 245.93C113.6 245.38 113.792 244.918 114.045 244.543C114.298 244.165 114.602 243.879 114.959 243.684C115.319 243.488 115.723 243.391 116.174 243.391C116.622 243.391 117.02 243.48 117.369 243.66C117.721 243.837 118.007 244.085 118.229 244.402C118.45 244.72 118.593 245.086 118.658 245.5H117.705C117.617 245.141 117.445 244.842 117.19 244.605C116.934 244.368 116.596 244.25 116.174 244.25C115.554 244.25 115.066 244.52 114.709 245.059C114.355 245.598 114.177 246.354 114.174 247.328H114.236C114.382 247.107 114.555 246.918 114.756 246.762C114.959 246.603 115.183 246.48 115.428 246.395C115.673 246.309 115.932 246.266 116.205 246.266C116.664 246.266 117.083 246.38 117.463 246.609C117.843 246.836 118.148 247.15 118.377 247.551C118.606 247.949 118.721 248.406 118.721 248.922C118.721 249.417 118.61 249.87 118.389 250.281C118.167 250.69 117.856 251.016 117.455 251.258C117.057 251.497 116.588 251.615 116.049 251.609ZM116.049 250.75C116.377 250.75 116.671 250.668 116.932 250.504C117.195 250.34 117.402 250.12 117.553 249.844C117.707 249.568 117.783 249.26 117.783 248.922C117.783 248.591 117.709 248.29 117.561 248.02C117.415 247.746 117.213 247.529 116.955 247.367C116.7 247.206 116.408 247.125 116.08 247.125C115.833 247.125 115.602 247.174 115.389 247.273C115.175 247.37 114.988 247.503 114.826 247.672C114.667 247.841 114.542 248.035 114.451 248.254C114.36 248.47 114.315 248.698 114.315 248.937C114.315 249.255 114.389 249.552 114.537 249.828C114.688 250.104 114.894 250.327 115.154 250.496C115.417 250.665 115.716 250.75 116.049 250.75Z" fill="white"/>
<path d="M137.356 251.5V250.797L139.997 247.906C140.306 247.568 140.562 247.273 140.762 247.023C140.963 246.771 141.111 246.534 141.208 246.312C141.306 246.089 141.356 245.854 141.356 245.609C141.356 245.328 141.288 245.085 141.153 244.879C141.02 244.673 140.838 244.514 140.606 244.402C140.374 244.29 140.114 244.234 139.825 244.234C139.517 244.234 139.249 244.298 139.02 244.426C138.793 244.551 138.618 244.727 138.493 244.953C138.37 245.18 138.309 245.445 138.309 245.75H137.387C137.387 245.281 137.495 244.87 137.711 244.516C137.928 244.161 138.222 243.885 138.594 243.687C138.969 243.49 139.39 243.391 139.856 243.391C140.325 243.391 140.74 243.49 141.102 243.687C141.464 243.885 141.748 244.152 141.954 244.488C142.159 244.824 142.262 245.198 142.262 245.609C142.262 245.904 142.209 246.191 142.102 246.473C141.998 246.751 141.816 247.062 141.555 247.406C141.297 247.747 140.939 248.164 140.481 248.656L138.684 250.578V250.641H142.403V251.5H137.356ZM144.266 251.5L147.844 244.422V244.359H143.719V243.5H148.844V244.406L145.282 251.5H144.266Z" fill="white"/>
<path d="M167.442 251.5V250.797L170.083 247.906C170.393 247.568 170.648 247.273 170.848 247.023C171.049 246.771 171.197 246.534 171.294 246.312C171.393 246.089 171.442 245.854 171.442 245.609C171.442 245.328 171.375 245.085 171.239 244.879C171.106 244.673 170.924 244.514 170.692 244.402C170.46 244.29 170.2 244.234 169.911 244.234C169.604 244.234 169.335 244.298 169.106 244.426C168.88 244.551 168.704 244.727 168.579 244.953C168.457 245.18 168.395 245.445 168.395 245.75H167.473C167.473 245.281 167.582 244.87 167.798 244.516C168.014 244.161 168.308 243.885 168.68 243.687C169.055 243.49 169.476 243.391 169.942 243.391C170.411 243.391 170.826 243.49 171.188 243.687C171.55 243.885 171.834 244.152 172.04 244.488C172.246 244.824 172.348 245.198 172.348 245.609C172.348 245.904 172.295 246.191 172.188 246.473C172.084 246.751 171.902 247.062 171.641 247.406C171.384 247.747 171.026 248.164 170.567 248.656L168.77 250.578V250.641H172.489V251.5H167.442ZM176.665 251.609C176.128 251.609 175.654 251.514 175.243 251.324C174.834 251.132 174.515 250.867 174.286 250.531C174.057 250.193 173.944 249.807 173.946 249.375C173.944 249.036 174.01 248.724 174.145 248.437C174.281 248.148 174.466 247.908 174.7 247.715C174.937 247.52 175.201 247.396 175.493 247.344V247.297C175.11 247.198 174.805 246.983 174.579 246.652C174.352 246.319 174.24 245.94 174.243 245.516C174.24 245.109 174.343 244.746 174.552 244.426C174.76 244.105 175.046 243.853 175.411 243.668C175.778 243.483 176.196 243.391 176.665 243.391C177.128 243.391 177.542 243.483 177.907 243.668C178.272 243.853 178.558 244.105 178.766 244.426C178.977 244.746 179.084 245.109 179.087 245.516C179.084 245.94 178.968 246.319 178.739 246.652C178.513 246.983 178.212 247.198 177.837 247.297V247.344C178.126 247.396 178.386 247.52 178.618 247.715C178.85 247.908 179.035 248.148 179.173 248.437C179.311 248.724 179.381 249.036 179.384 249.375C179.381 249.807 179.264 250.193 179.032 250.531C178.803 250.867 178.484 251.132 178.075 251.324C177.669 251.514 177.199 251.609 176.665 251.609ZM176.665 250.75C177.027 250.75 177.339 250.691 177.602 250.574C177.865 250.457 178.069 250.292 178.212 250.078C178.355 249.865 178.428 249.615 178.43 249.328C178.428 249.026 178.35 248.759 178.196 248.527C178.042 248.296 177.833 248.113 177.567 247.98C177.304 247.848 177.003 247.781 176.665 247.781C176.324 247.781 176.019 247.848 175.751 247.98C175.485 248.113 175.276 248.296 175.122 248.527C174.971 248.759 174.897 249.026 174.899 249.328C174.897 249.615 174.966 249.865 175.106 250.078C175.25 250.292 175.454 250.457 175.72 250.574C175.985 250.691 176.3 250.75 176.665 250.75ZM176.665 246.953C176.951 246.953 177.205 246.896 177.427 246.781C177.651 246.667 177.826 246.507 177.954 246.301C178.082 246.095 178.147 245.854 178.149 245.578C178.147 245.307 178.083 245.072 177.958 244.871C177.833 244.668 177.66 244.512 177.438 244.402C177.217 244.29 176.959 244.234 176.665 244.234C176.365 244.234 176.104 244.29 175.88 244.402C175.656 244.512 175.483 244.668 175.36 244.871C175.238 245.072 175.178 245.307 175.18 245.578C175.178 245.854 175.239 246.095 175.364 246.301C175.492 246.507 175.667 246.667 175.891 246.781C176.115 246.896 176.373 246.953 176.665 246.953Z" fill="white"/>
<path d="M197.733 251.5V250.797L200.373 247.906C200.683 247.568 200.938 247.273 201.139 247.023C201.339 246.771 201.488 246.534 201.584 246.312C201.683 246.089 201.733 245.854 201.733 245.609C201.733 245.328 201.665 245.085 201.529 244.879C201.397 244.673 201.214 244.514 200.983 244.402C200.751 244.29 200.49 244.234 200.201 244.234C199.894 244.234 199.626 244.298 199.397 244.426C199.17 244.551 198.994 244.727 198.869 244.953C198.747 245.18 198.686 245.445 198.686 245.75H197.764C197.764 245.281 197.872 244.87 198.088 244.516C198.304 244.161 198.598 243.885 198.971 243.687C199.346 243.49 199.766 243.391 200.233 243.391C200.701 243.391 201.117 243.49 201.479 243.687C201.841 243.885 202.125 244.152 202.33 244.488C202.536 244.824 202.639 245.198 202.639 245.609C202.639 245.904 202.585 246.191 202.479 246.473C202.375 246.751 202.192 247.062 201.932 247.406C201.674 247.747 201.316 248.164 200.858 248.656L199.061 250.578V250.641H202.779V251.5H197.733ZM206.94 243.391C207.268 243.393 207.596 243.456 207.924 243.578C208.252 243.701 208.552 243.904 208.822 244.187C209.093 244.469 209.311 244.853 209.475 245.34C209.639 245.827 209.721 246.437 209.721 247.172C209.721 247.883 209.653 248.514 209.518 249.066C209.385 249.616 209.192 250.079 208.94 250.457C208.69 250.835 208.385 251.121 208.026 251.316C207.669 251.512 207.265 251.609 206.815 251.609C206.367 251.609 205.967 251.521 205.615 251.344C205.266 251.164 204.98 250.915 204.756 250.598C204.535 250.277 204.393 249.906 204.33 249.484H205.283C205.369 249.852 205.54 250.155 205.795 250.395C206.053 250.632 206.393 250.75 206.815 250.75C207.432 250.75 207.919 250.48 208.276 249.941C208.635 249.402 208.815 248.641 208.815 247.656H208.752C208.606 247.875 208.433 248.064 208.233 248.223C208.032 248.382 207.809 248.504 207.565 248.59C207.32 248.676 207.059 248.719 206.783 248.719C206.325 248.719 205.904 248.605 205.522 248.379C205.141 248.15 204.837 247.836 204.608 247.437C204.381 247.036 204.268 246.578 204.268 246.062C204.268 245.573 204.377 245.125 204.596 244.719C204.817 244.31 205.127 243.984 205.526 243.742C205.927 243.5 206.398 243.383 206.94 243.391ZM206.94 244.25C206.611 244.25 206.316 244.332 206.053 244.496C205.792 244.658 205.585 244.876 205.432 245.152C205.281 245.426 205.205 245.729 205.205 246.062C205.205 246.396 205.278 246.699 205.424 246.973C205.572 247.243 205.774 247.46 206.029 247.621C206.287 247.78 206.58 247.859 206.908 247.859C207.156 247.859 207.386 247.811 207.6 247.715C207.813 247.616 208 247.482 208.158 247.312C208.32 247.141 208.446 246.947 208.537 246.73C208.628 246.512 208.674 246.284 208.674 246.047C208.674 245.734 208.598 245.441 208.447 245.168C208.299 244.895 208.093 244.673 207.83 244.504C207.57 244.335 207.273 244.25 206.94 244.25Z" fill="#F9A11E"/>
<path d="M230.592 251.609C230.076 251.609 229.617 251.521 229.213 251.344C228.812 251.167 228.493 250.921 228.256 250.605C228.021 250.288 227.894 249.919 227.873 249.5H228.857C228.878 249.758 228.967 249.98 229.123 250.168C229.279 250.353 229.484 250.496 229.736 250.598C229.989 250.699 230.269 250.75 230.576 250.75C230.92 250.75 231.225 250.69 231.49 250.57C231.756 250.451 231.964 250.284 232.115 250.07C232.266 249.857 232.342 249.609 232.342 249.328C232.342 249.034 232.269 248.775 232.123 248.551C231.977 248.324 231.764 248.147 231.482 248.02C231.201 247.892 230.857 247.828 230.451 247.828H229.811V246.969H230.451C230.769 246.969 231.048 246.911 231.287 246.797C231.529 246.682 231.718 246.521 231.854 246.312C231.992 246.104 232.061 245.859 232.061 245.578C232.061 245.307 232.001 245.072 231.881 244.871C231.761 244.671 231.592 244.514 231.373 244.402C231.157 244.29 230.902 244.234 230.607 244.234C230.331 244.234 230.071 244.285 229.826 244.387C229.584 244.486 229.386 244.63 229.232 244.82C229.079 245.008 228.995 245.234 228.982 245.5H228.045C228.061 245.081 228.187 244.714 228.424 244.398C228.661 244.081 228.971 243.833 229.354 243.656C229.739 243.479 230.162 243.391 230.623 243.391C231.118 243.391 231.542 243.491 231.896 243.691C232.251 243.889 232.523 244.151 232.713 244.477C232.903 244.802 232.998 245.154 232.998 245.531C232.998 245.982 232.88 246.366 232.643 246.684C232.408 247.001 232.089 247.221 231.686 247.344V247.406C232.191 247.49 232.585 247.704 232.869 248.051C233.153 248.395 233.295 248.82 233.295 249.328C233.295 249.763 233.176 250.154 232.939 250.5C232.705 250.844 232.385 251.115 231.979 251.312C231.572 251.51 231.11 251.609 230.592 251.609ZM237.502 251.609C236.913 251.609 236.412 251.449 235.998 251.129C235.584 250.806 235.268 250.339 235.049 249.727C234.83 249.112 234.721 248.37 234.721 247.5C234.721 246.635 234.83 245.897 235.049 245.285C235.27 244.671 235.588 244.202 236.002 243.879C236.419 243.553 236.919 243.391 237.502 243.391C238.085 243.391 238.584 243.553 238.998 243.879C239.415 244.202 239.732 244.671 239.951 245.285C240.173 245.897 240.283 246.635 240.283 247.5C240.283 248.37 240.174 249.112 239.955 249.727C239.736 250.339 239.42 250.806 239.006 251.129C238.592 251.449 238.09 251.609 237.502 251.609ZM237.502 250.75C238.085 250.75 238.538 250.469 238.861 249.906C239.184 249.344 239.346 248.542 239.346 247.5C239.346 246.807 239.271 246.217 239.123 245.73C238.977 245.243 238.766 244.872 238.49 244.617C238.217 244.362 237.887 244.234 237.502 244.234C236.924 244.234 236.472 244.52 236.146 245.09C235.821 245.658 235.658 246.461 235.658 247.5C235.658 248.193 235.731 248.781 235.877 249.266C236.023 249.75 236.232 250.118 236.506 250.371C236.782 250.624 237.114 250.75 237.502 250.75Z" fill="#F9A11E"/>
</g>
</g>
</g>
<defs>
<linearGradient id="paint0_linear_94_220" x1="24.5" y1="-40" x2="159.5" y2="398" gradientUnits="userSpaceOnUse">
<stop stop-color="#B4A7A7"/>
<stop offset="1" stop-opacity="0"/>
</linearGradient>
<clipPath id="clip0_94_220">
<rect width="286" height="286" fill="white"/>
</clipPath>
</defs>
</svg>
