<svg width="26" height="26" viewBox="0 0 26 26" fill="none" xmlns="http://www.w3.org/2000/svg">
<path d="M3.12497 0C1.39806 0 0.000279389 1.4003 0 3.12329C0 4.84796 1.39779 6.24799 3.12525 6.24799C4.84796 6.24799 6.24771 4.84796 6.24771 3.12329C6.24771 1.40002 4.84769 0 3.12497 0Z" fill="white"/>
<path d="M5.81826 8.61821H0.429679V25.9554H5.81826V8.61821Z" fill="white"/>
<path d="M19.5363 8.18703C16.9151 8.18703 15.1574 9.62421 14.438 10.9871H14.3659V8.61813H9.19778H9.1975V25.9551H14.5813V17.3784C14.5813 15.1173 15.0119 12.9272 17.8153 12.9272C20.5784 12.9272 20.6153 15.5132 20.6153 17.5234V25.9548H26V16.4455C26 11.7777 24.9928 8.18703 19.5363 8.18703Z" fill="white"/>
</svg>
