<svg width="26" height="26" viewBox="0 0 26 26" fill="none" xmlns="http://www.w3.org/2000/svg">
<path d="M13 9.77599C12.3623 9.77599 11.739 9.96507 11.2088 10.3193C10.6786 10.6736 10.2654 11.1771 10.0214 11.7662C9.77738 12.3553 9.71354 13.0036 9.83794 13.629C9.96234 14.2543 10.2694 14.8288 10.7203 15.2797C11.1712 15.7306 11.7456 16.0376 12.371 16.162C12.9964 16.2864 13.6446 16.2226 14.2338 15.9786C14.8229 15.7346 15.3264 15.3213 15.6806 14.7911C16.0349 14.261 16.224 13.6376 16.224 13C16.224 12.5766 16.1406 12.1574 15.9786 11.7662C15.8165 11.3751 15.5791 11.0197 15.2797 10.7203C14.9803 10.4209 14.6249 10.1834 14.2338 10.0214C13.8426 9.85938 13.4234 9.77599 13 9.77599ZM25.909 6.59099C25.9021 5.58708 25.7173 4.59234 25.363 3.653C25.102 2.96563 24.6983 2.34142 24.1784 1.82154C23.6585 1.30166 23.0343 0.897932 22.347 0.636999C21.4076 0.282703 20.4129 0.097839 19.409 0.0909998C17.732 -8.71717e-08 17.238 0 13 0C8.76199 0 8.26799 -8.71717e-08 6.59099 0.0909998C5.58708 0.097839 4.59234 0.282703 3.653 0.636999C2.96563 0.897932 2.34142 1.30166 1.82154 1.82154C1.30166 2.34142 0.897932 2.96563 0.636999 3.653C0.282703 4.59234 0.097839 5.58708 0.0909998 6.59099C-8.71717e-08 8.26799 0 8.76199 0 13C0 17.238 -8.71717e-08 17.732 0.0909998 19.409C0.104993 20.4164 0.289606 21.4142 0.636999 22.36C0.896775 23.0442 1.30017 23.6648 1.82 24.18C2.33765 24.703 2.9632 25.1067 3.653 25.363C4.59234 25.7173 5.58708 25.9021 6.59099 25.909C8.26799 26 8.76199 26 13 26C17.238 26 17.732 26 19.409 25.909C20.4129 25.9021 21.4076 25.7173 22.347 25.363C23.0368 25.1067 23.6623 24.703 24.18 24.18C24.6998 23.6648 25.1032 23.0442 25.363 22.36C25.7169 21.416 25.9018 20.4171 25.909 19.409C26 17.732 26 17.238 26 13C26 8.76199 26 8.26799 25.909 6.59099ZM22.607 16.991C22.5653 17.7932 22.394 18.5834 22.1 19.331C21.8476 19.9546 21.4724 20.521 20.9967 20.9967C20.521 21.4724 19.9546 21.8476 19.331 22.1C18.5763 22.3776 17.7817 22.5313 16.978 22.555C15.951 22.555 15.678 22.555 13 22.555C10.322 22.555 10.049 22.555 9.02199 22.555C8.21824 22.5313 7.42363 22.3776 6.66899 22.1C6.02433 21.8604 5.44215 21.4782 4.96599 20.982C4.49496 20.5156 4.13119 19.9522 3.9 19.331C3.62122 18.5771 3.47178 17.7816 3.458 16.978C3.458 15.951 3.458 15.678 3.458 13C3.458 10.322 3.458 10.049 3.458 9.02199C3.47178 8.21836 3.62122 7.42284 3.9 6.66899C4.13956 6.02433 4.52175 5.44215 5.01799 4.96599C5.48643 4.49751 6.04924 4.13412 6.66899 3.9C7.42363 3.62232 8.21824 3.46867 9.02199 3.445C10.049 3.445 10.322 3.445 13 3.445C15.678 3.445 15.951 3.445 16.978 3.445C17.7817 3.46867 18.5763 3.62232 19.331 3.9C19.9756 4.13956 20.5578 4.52175 21.034 5.01799C21.505 5.48437 21.8688 6.04776 22.1 6.66899C22.3776 7.42363 22.5313 8.21824 22.555 9.02199C22.555 10.049 22.555 10.322 22.555 13C22.555 15.678 22.646 15.951 22.607 16.978V16.991ZM20.527 7.31899C20.3722 6.89907 20.1282 6.51773 19.8117 6.20127C19.4952 5.88481 19.1139 5.64078 18.694 5.48599C18.1174 5.28613 17.5101 5.18932 16.9 5.19999C15.886 5.19999 15.6 5.19999 13 5.19999C10.4 5.19999 10.114 5.19999 9.09999 5.19999C8.48674 5.20599 7.87938 5.32042 7.30599 5.53799C6.8925 5.68575 6.51519 5.91982 6.19915 6.22465C5.88311 6.52949 5.63557 6.8981 5.47299 7.30599C5.2842 7.88497 5.19197 8.49106 5.19999 9.09999C5.19999 10.114 5.19999 10.4 5.19999 13C5.19999 15.6 5.19999 15.886 5.19999 16.9C5.21288 17.5125 5.32709 18.1187 5.53799 18.694C5.69278 19.1139 5.93681 19.4952 6.25327 19.8117C6.56973 20.1282 6.95107 20.3722 7.37099 20.527C7.92566 20.731 8.50934 20.8451 9.09999 20.865C10.114 20.865 10.4 20.865 13 20.865C15.6 20.865 15.886 20.865 16.9 20.865C17.5132 20.859 18.1206 20.7446 18.694 20.527C19.1139 20.3722 19.4952 20.1282 19.8117 19.8117C20.1282 19.4952 20.3722 19.1139 20.527 18.694C20.7446 18.1206 20.859 17.5132 20.865 16.9C20.865 15.886 20.865 15.6 20.865 13C20.865 10.4 20.865 10.114 20.865 9.09999C20.8654 8.48613 20.7507 7.87763 20.527 7.30599V7.31899ZM13 17.966C12.3485 17.966 11.7033 17.8374 11.1015 17.5877C10.4998 17.338 9.95318 16.972 9.49308 16.5107C9.03299 16.0494 8.66842 15.5018 8.42028 14.8994C8.17213 14.297 8.04528 13.6515 8.04699 13C8.04699 12.0173 8.33858 11.0566 8.88482 10.2397C9.43107 9.42275 10.2074 8.78625 11.1156 8.41077C12.0238 8.03529 13.0229 7.93771 13.9866 8.13038C14.9503 8.32305 15.8351 8.79731 16.5291 9.49312C17.2231 10.1889 17.695 11.075 17.8851 12.0392C18.0753 13.0033 17.9751 14.0022 17.5972 14.9094C17.2194 15.8166 16.5808 16.5913 15.7625 17.1354C14.9441 17.6795 13.9827 17.9686 13 17.966ZM18.2 9.00899C17.9126 8.97857 17.6467 8.84288 17.4534 8.62805C17.2601 8.41323 17.1531 8.13447 17.1531 7.84549C17.1531 7.55651 17.2601 7.27776 17.4534 7.06293C17.6467 6.8481 17.9126 6.71241 18.2 6.68199C18.4874 6.71241 18.7533 6.8481 18.9466 7.06293C19.1399 7.27776 19.2468 7.55651 19.2468 7.84549C19.2468 8.13447 19.1399 8.41323 18.9466 8.62805C18.7533 8.84288 18.4874 8.97857 18.2 9.00899Z" fill="white"/>
</svg>
