<svg width="21" height="21" viewBox="0 0 26 26" fill="none" xmlns="http://www.w3.org/2000/svg">
<path d="M3.06733 0.424805C1.37227 0.424805 0.000274236 1.79927 0 3.49048C0 5.18334 1.372 6.55754 3.0676 6.55754C4.75854 6.55754 6.13246 5.18334 6.13246 3.49048C6.13246 1.799 4.75826 0.424805 3.06733 0.424805Z" fill="white"/>
<path d="M5.71093 8.88403H0.421753V25.9014H5.71093V8.88403Z" fill="white"/>
<path d="M19.1759 8.46082C16.603 8.46082 14.8778 9.87148 14.1717 11.2092H14.1009V8.88396H9.02811H9.02783V25.9011H14.3124V17.4826C14.3124 15.2632 14.7349 13.1135 17.4866 13.1135C20.1988 13.1135 20.235 15.6518 20.235 17.6249V25.9008H25.5204V16.5669C25.5204 11.9853 24.5317 8.46082 19.1759 8.46082Z" fill="white"/>
</svg>
