<svg width="21" height="21" viewBox="0 0 26 26" fill="none" xmlns="http://www.w3.org/2000/svg">
<path d="M12.6026 9.47719C11.9845 9.47719 11.3802 9.66049 10.8662 10.0039C10.3523 10.3474 9.95166 10.8355 9.7151 11.4066C9.47854 11.9777 9.41665 12.6061 9.53725 13.2124C9.65784 13.8187 9.95551 14.3756 10.3926 14.8127C10.8297 15.2498 11.3866 15.5475 11.9929 15.668C12.5992 15.7886 13.2276 15.7268 13.7987 15.4902C14.3698 15.2536 14.8579 14.853 15.2014 14.3391C15.5448 13.8251 15.7281 13.2208 15.7281 12.6026C15.7281 12.1922 15.6473 11.7858 15.4902 11.4066C15.3331 11.0274 15.1029 10.6828 14.8127 10.3926C14.5225 10.1024 14.1779 9.87217 13.7987 9.7151C13.4195 9.55803 13.0131 9.47719 12.6026 9.47719ZM25.1171 6.38954C25.1104 5.41631 24.9312 4.45197 24.5878 3.54134C24.3348 2.87499 23.9434 2.26985 23.4394 1.76586C22.9354 1.26187 22.3303 0.870487 21.6639 0.61753C20.7533 0.274062 19.789 0.0948486 18.8158 0.0882184C17.19 -8.45073e-08 16.7111 0 12.6026 0C8.49418 0 8.01528 -8.45073e-08 6.38954 0.0882184C5.41631 0.0948486 4.45197 0.274062 3.54134 0.61753C2.87499 0.870487 2.26985 1.26187 1.76586 1.76586C1.26187 2.26985 0.870487 2.87499 0.61753 3.54134C0.274062 4.45197 0.0948486 5.41631 0.0882184 6.38954C-8.45073e-08 8.01528 0 8.49418 0 12.6026C0 16.7111 -8.45073e-08 17.19 0.0882184 18.8158C0.101784 19.7924 0.280755 20.7597 0.61753 21.6766C0.869366 22.3399 1.26043 22.9415 1.76437 23.4409C2.2662 23.9479 2.87263 24.3393 3.54134 24.5878C4.45197 24.9312 5.41631 25.1104 6.38954 25.1171C8.01528 25.2053 8.49418 25.2053 12.6026 25.2053C16.7111 25.2053 17.19 25.2053 18.8158 25.1171C19.789 25.1104 20.7533 24.9312 21.6639 24.5878C22.3327 24.3393 22.9391 23.9479 23.4409 23.4409C23.9449 22.9415 24.3359 22.3399 24.5878 21.6766C24.9309 20.7615 25.1101 19.793 25.1171 18.8158C25.2053 17.19 25.2053 16.7111 25.2053 12.6026C25.2053 8.49418 25.2053 8.01528 25.1171 6.38954ZM21.916 16.4717C21.8756 17.2494 21.7096 18.0154 21.4245 18.7401C21.1798 19.3447 20.8161 19.8938 20.355 20.355C19.8938 20.8161 19.3447 21.1798 18.7401 21.4245C18.0086 21.6937 17.2382 21.8426 16.4591 21.8656C15.4634 21.8656 15.1988 21.8656 12.6026 21.8656C10.0065 21.8656 9.74185 21.8656 8.74624 21.8656C7.96705 21.8426 7.19673 21.6937 6.46516 21.4245C5.8402 21.1923 5.27582 20.8217 4.81421 20.3407C4.35757 19.8886 4.00492 19.3424 3.78079 18.7401C3.51054 18.0093 3.36567 17.2381 3.3523 16.4591C3.3523 15.4634 3.3523 15.1988 3.3523 12.6026C3.3523 10.0065 3.3523 9.74185 3.3523 8.74624C3.36567 7.96717 3.51054 7.19597 3.78079 6.46516C4.01304 5.8402 4.38355 5.27582 4.86462 4.81421C5.31874 4.36004 5.86434 4.00776 6.46516 3.78079C7.19673 3.51161 7.96705 3.36265 8.74624 3.3397C9.74185 3.3397 10.0065 3.3397 12.6026 3.3397C15.1988 3.3397 15.4634 3.3397 16.4591 3.3397C17.2382 3.36265 18.0086 3.51161 18.7401 3.78079C19.3651 4.01304 19.9295 4.38355 20.3911 4.86462C20.8477 5.31674 21.2004 5.86292 21.4245 6.46516C21.6937 7.19673 21.8426 7.96705 21.8656 8.74624C21.8656 9.74185 21.8656 10.0065 21.8656 12.6026C21.8656 15.1988 21.9538 15.4634 21.916 16.4591V16.4717ZM19.8996 7.09529C19.7495 6.6882 19.5129 6.31852 19.2062 6.01173C18.8994 5.70495 18.5297 5.46837 18.1226 5.31832C17.5636 5.12456 16.9749 5.03071 16.3834 5.04106C15.4004 5.04106 15.1232 5.04106 12.6026 5.04106C10.0821 5.04106 9.80486 5.04106 8.82185 5.04106C8.22734 5.04687 7.63855 5.1578 7.08269 5.36873C6.68183 5.51196 6.31606 5.73888 6.00968 6.0344C5.7033 6.32992 5.46332 6.68726 5.30571 7.08269C5.12269 7.64397 5.03328 8.23154 5.04106 8.82185C5.04106 9.80486 5.04106 10.0821 5.04106 12.6026C5.04106 15.1232 5.04106 15.4004 5.04106 16.3834C5.05355 16.9773 5.16427 17.5649 5.36873 18.1226C5.51878 18.5297 5.75536 18.8994 6.06214 19.2062C6.36893 19.5129 6.73862 19.7495 7.1457 19.8996C7.68341 20.0973 8.24925 20.2079 8.82185 20.2272C9.80486 20.2272 10.0821 20.2272 12.6026 20.2272C15.1232 20.2272 15.4004 20.2272 16.3834 20.2272C16.9779 20.2214 17.5667 20.1105 18.1226 19.8996C18.5297 19.7495 18.8994 19.5129 19.2062 19.2062C19.5129 18.8994 19.7495 18.5297 19.8996 18.1226C20.1105 17.5667 20.2214 16.9779 20.2272 16.3834C20.2272 15.4004 20.2272 15.1232 20.2272 12.6026C20.2272 10.0821 20.2272 9.80486 20.2272 8.82185C20.2276 8.22675 20.1165 7.63685 19.8996 7.08269V7.09529ZM12.6026 17.4169C11.971 17.4169 11.3456 17.2922 10.7622 17.0502C10.1789 16.8081 9.64897 16.4533 9.20293 16.006C8.7569 15.5588 8.40348 15.028 8.16292 14.444C7.92235 13.86 7.79938 13.2343 7.80104 12.6026C7.80104 11.6499 8.08371 10.7187 8.61326 9.92671C9.14281 9.13475 9.89544 8.51771 10.7759 8.1537C11.6563 7.7897 12.6249 7.6951 13.5591 7.88188C14.4933 8.06866 15.3511 8.52842 16.0239 9.20297C16.6966 9.87751 17.1542 10.7365 17.3385 11.6712C17.5228 12.6059 17.4257 13.5743 17.0594 14.4537C16.6931 15.3332 16.0741 16.0842 15.2807 16.6117C14.4874 17.1391 13.5553 17.4194 12.6026 17.4169ZM17.6437 8.73363C17.3651 8.70415 17.1073 8.5726 16.9199 8.36434C16.7325 8.15608 16.6289 7.88584 16.6289 7.6057C16.6289 7.32555 16.7325 7.05531 16.9199 6.84706C17.1073 6.6388 17.3651 6.50725 17.6437 6.47776C17.9223 6.50725 18.1801 6.6388 18.3675 6.84706C18.5549 7.05531 18.6586 7.32555 18.6586 7.6057C18.6586 7.88584 18.5549 8.15608 18.3675 8.36434C18.1801 8.5726 17.9223 8.70415 17.6437 8.73363Z" fill="white"/>
</svg>
